<?xml version="1.0" encoding="utf-8"?>
<!-- Generator: Adobe Illustrator 27.9.0, SVG Export Plug-In . SVG Version: 6.00 Build 0)  -->
<svg version="1.1" id="Chinese_Text_2" xmlns="http://www.w3.org/2000/svg" xmlns:xlink="http://www.w3.org/1999/xlink" x="0px"
	 y="0px" viewBox="0 0 346.84 222.45" style="enable-background:new 0 0 346.84 222.45;" xml:space="preserve">
<style type="text/css">
	.st0{fill:#FFFFFF;}
</style>
<g>
	<g>
		<path d="M64.36,170.97c-0.6-0.82-1.56-1.23-2.53-1.23c-2.25,0-3.85,1.98-3.85,4.2c0,2.34,1.58,4.19,3.85,4.19
			c1.23,0,2.21-0.5,2.93-1.41l0.9,0.76c-0.9,1.21-2.21,1.77-3.82,1.77c-2.9,0-5.14-2.24-5.14-5.31c0-2.97,2.14-5.31,5.14-5.31
			c1.37,0,2.71,0.47,3.57,1.58L64.36,170.97z"/>
		<path d="M92.45,175.14c0,2.2-1.03,4.11-3.81,4.11c-2.78,0-3.81-1.92-3.81-4.11v-6.25h1.2v6.08c0,1.63,0.6,3.17,2.61,3.17
			c2.01,0,2.61-1.54,2.61-3.17v-6.08h1.2V175.14z"/>
		<path d="M67.58,168.89c0.46,0,0.81,0.37,0.81,0.81c0,0.47-0.34,0.81-0.81,0.81c-0.47,0-0.81-0.34-0.81-0.81
			C66.76,169.26,67.12,168.89,67.58,168.89 M67.02,172.31h1.11v6.68h-1.11V172.31z"/>
		<path d="M73.7,173.25h-1.97v3.34c0,0.85,0.02,1.54,1,1.54c0.33,0,0.68-0.07,0.98-0.23l0.04,1.01c-0.38,0.17-0.88,0.24-1.3,0.24
			c-1.58,0-1.84-0.85-1.84-2.24v-3.67h-1.46v-0.94h1.46v-1.9h1.11v1.9h1.97V173.25z"/>
		<path d="M78.1,180.52c-0.44,1.13-0.88,1.9-2.22,1.9c-0.31,0-0.7-0.03-1-0.17l0.14-0.97c0.23,0.09,0.47,0.11,0.79,0.11
			c0.73,0,1-0.44,1.24-1.1l0.46-1.25l-2.76-6.72h1.3l2.07,5.24h0.03l1.98-5.24h1.21L78.1,180.52z"/>
		<path d="M93.91,173.9c0-0.61-0.06-1.14-0.06-1.59h1.06c0,0.36,0.03,0.73,0.03,1.1h0.03c0.3-0.65,1.13-1.27,2.22-1.27
			c1.76,0,2.54,1.11,2.54,2.72v4.12h-1.11v-4.01c0-1.11-0.49-1.81-1.53-1.81c-1.44,0-2.07,1.05-2.07,2.57v3.25h-1.11V173.9z"/>
		<path d="M101.85,168.89c0.45,0,0.81,0.37,0.81,0.81c0,0.47-0.34,0.81-0.81,0.81c-0.47,0-0.81-0.34-0.81-0.81
			C101.04,169.26,101.4,168.89,101.85,168.89 M101.29,172.31h1.11v6.68h-1.11V172.31z"/>
		<polygon points="107.73,178.99 106.51,178.99 103.78,172.31 105.08,172.31 107.17,177.55 107.19,177.55 109.18,172.31 
			110.37,172.31 		"/>
		<path d="M123.81,177.24c0.44,0.54,0.93,0.9,1.71,0.9c0.7,0,1.47-0.3,1.47-1.03c0-0.71-0.71-0.9-1.43-1.06
			c-1.27-0.28-2.35-0.55-2.35-1.94c0-1.3,1.26-1.97,2.5-1.97c0.94,0,1.81,0.36,2.27,1.21l-0.93,0.61c-0.29-0.47-0.76-0.8-1.41-0.8
			c-0.61,0-1.31,0.3-1.31,0.93c0,0.56,0.8,0.8,1.69,0.97c1.18,0.23,2.18,0.65,2.18,2c0,1.51-1.34,2.09-2.67,2.09
			c-1.13,0-1.94-0.3-2.6-1.24L123.81,177.24z"/>
		<path d="M117.01,177.78c-0.79,1.01-1.73,1.38-2.97,1.38c-2.1,0-3.39-1.57-3.39-3.51c0-2.07,1.46-3.51,3.43-3.51
			c1.88,0,3.17,1.28,3.17,3.5V176h-5.39c0.09,1.16,0.97,2.14,2.19,2.14c0.95,0,1.6-0.34,2.13-1.02L117.01,177.78z M116.05,175.05
			c-0.04-1.13-0.79-1.89-2.01-1.89c-1.23,0-2.04,0.76-2.19,1.89H116.05z"/>
		<path d="M118.67,173.9c0-0.61-0.06-1.14-0.06-1.59h1.06c0,0.36,0.03,0.73,0.03,1.1h0.03c0.3-0.65,1.13-1.27,2.23-1.27
			c0.14,0,0.3,0.01,0.46,0.07l-0.07,1.12c-0.19-0.06-0.4-0.09-0.6-0.09c-1.36,0-1.95,0.96-1.95,2.49v3.25h-1.11V173.9z"/>
		<path d="M130.04,168.89c0.46,0,0.81,0.37,0.81,0.81c0,0.47-0.34,0.81-0.81,0.81s-0.81-0.34-0.81-0.81
			C129.23,169.26,129.59,168.89,130.04,168.89 M129.49,172.31h1.11v6.68h-1.11V172.31z"/>
		<path d="M136.45,173.25h-1.97v3.34c0,0.85,0.01,1.54,1,1.54c0.33,0,0.68-0.07,0.98-0.23l0.04,1.01c-0.38,0.17-0.88,0.24-1.3,0.24
			c-1.58,0-1.84-0.85-1.84-2.24v-3.67h-1.45v-0.94h1.45v-1.9h1.11v1.9h1.97V173.25z"/>
		<path d="M140.63,180.52c-0.44,1.13-0.88,1.9-2.22,1.9c-0.32,0-0.7-0.03-1-0.17l0.14-0.97c0.23,0.09,0.47,0.11,0.79,0.11
			c0.73,0,1-0.44,1.24-1.1l0.46-1.25l-2.77-6.72h1.3l2.07,5.24h0.03l1.98-5.24h1.21L140.63,180.52z"/>
		<path d="M150.47,172.14c2.06,0,3.57,1.43,3.57,3.51c0,2.09-1.51,3.51-3.57,3.51c-2.05,0-3.56-1.42-3.56-3.51
			C146.91,173.57,148.41,172.14,150.47,172.14 M150.47,178.14c1.44,0,2.37-1.09,2.37-2.48c0-1.4-0.93-2.48-2.37-2.48
			c-1.44,0-2.37,1.08-2.37,2.48C148.1,177.05,149.03,178.14,150.47,178.14"/>
		<path d="M155.96,173.25h-1.45v-0.94h1.45v-1.5c0-1.63,0.57-2.79,2.37-2.79c0.28,0,0.64,0.06,0.86,0.17l-0.16,1
			c-0.24-0.09-0.5-0.14-0.75-0.14c-1.16,0-1.2,0.84-1.2,2v1.25h1.63v0.94h-1.63v5.74h-1.11V173.25z"/>
		<polygon points="163.27,168.89 164.47,168.89 164.47,173.17 169.86,173.17 169.86,168.89 171.06,168.89 171.06,178.99 
			169.86,178.99 169.86,174.28 164.47,174.28 164.47,178.99 163.27,178.99 		"/>
		<path d="M176.02,172.14c2.06,0,3.57,1.43,3.57,3.51c0,2.09-1.51,3.51-3.57,3.51c-2.05,0-3.57-1.42-3.57-3.51
			C172.45,173.57,173.97,172.14,176.02,172.14 M176.02,178.14c1.44,0,2.37-1.09,2.37-2.48c0-1.4-0.93-2.48-2.37-2.48
			c-1.44,0-2.37,1.08-2.37,2.48C173.65,177.05,174.58,178.14,176.02,178.14"/>
		<path d="M180.98,173.9c0-0.61-0.06-1.14-0.06-1.59h1.05c0,0.36,0.03,0.73,0.03,1.1h0.03c0.3-0.65,1.13-1.27,2.23-1.27
			c1.75,0,2.54,1.11,2.54,2.72v4.12h-1.11v-4.01c0-1.11-0.48-1.81-1.52-1.81c-1.44,0-2.07,1.05-2.07,2.57v3.25h-1.11V173.9z"/>
		<path d="M195.16,178.69c0,2.41-1.3,3.73-3.64,3.73c-1.3,0-2.34-0.34-3.28-1.27l0.8-0.92c0.7,0.76,1.46,1.16,2.48,1.16
			c2,0,2.53-1.28,2.53-2.7v-0.86h-0.03c-0.53,0.86-1.47,1.24-2.36,1.24c-2.1,0-3.55-1.46-3.55-3.43c0-2.18,1.42-3.51,3.55-3.51
			c0.9,0,1.91,0.43,2.36,1.31h0.03v-1.14h1.11V178.69z M191.66,178.05c1.53,0,2.38-1.14,2.38-2.43c0-1.44-0.97-2.46-2.38-2.46
			c-1.4,0-2.35,1.09-2.35,2.48C189.31,177.01,190.36,178.05,191.66,178.05"/>
		<path d="M211.56,172.14c2.05,0,3.57,1.43,3.57,3.51c0,2.09-1.51,3.51-3.57,3.51c-2.05,0-3.57-1.42-3.57-3.51
			C207.99,173.57,209.51,172.14,211.56,172.14 M211.56,178.14c1.44,0,2.37-1.09,2.37-2.48c0-1.4-0.93-2.48-2.37-2.48
			c-1.44,0-2.37,1.08-2.37,2.48C209.19,177.05,210.12,178.14,211.56,178.14"/>
		<path d="M216.52,173.9c0-0.61-0.06-1.14-0.06-1.59h1.05c0,0.36,0.03,0.73,0.03,1.1h0.03c0.3-0.65,1.13-1.27,2.23-1.27
			c1.76,0,2.54,1.11,2.54,2.72v4.12h-1.11v-4.01c0-1.11-0.48-1.81-1.53-1.81c-1.44,0-2.07,1.05-2.07,2.57v3.25h-1.11V173.9z"/>
		<path d="M230.69,178.69c0,2.41-1.3,3.73-3.64,3.73c-1.3,0-2.34-0.34-3.28-1.27l0.8-0.92c0.7,0.76,1.46,1.16,2.48,1.16
			c2,0,2.53-1.28,2.53-2.7v-0.86h-0.03c-0.53,0.86-1.47,1.24-2.36,1.24c-2.1,0-3.55-1.46-3.55-3.43c0-2.18,1.43-3.51,3.55-3.51
			c0.9,0,1.91,0.43,2.36,1.31h0.03v-1.14h1.11V178.69z M227.2,178.05c1.53,0,2.38-1.14,2.38-2.43c0-1.44-0.97-2.46-2.38-2.46
			c-1.4,0-2.36,1.09-2.36,2.48C224.84,177.01,225.9,178.05,227.2,178.05"/>
		<polygon points="200.28,168.89 201.47,168.89 201.47,173.25 201.65,173.25 206.24,168.89 207.97,168.89 202.97,173.5 
			208.21,178.99 206.45,178.99 201.65,173.85 201.47,173.85 201.47,178.99 200.28,178.99 		"/>
	</g>
	<g>
		<path d="M66.39,150.75h6.07v-0.95h-7.18v-1.76c1.97-0.18,3.82-0.44,5.51-0.78l0.18-0.04l-0.54-1l-0.1,0.02
			c-3.91,0.78-7.88,1.17-11.82,1.17h-0.17l0.28,1.02l0.1,0c1.94-0.05,3.8-0.15,5.55-0.3v1.67h-7.19v0.95h6.04
			c-0.64,0.69-1.5,1.38-2.55,2.05c-1.31,0.84-2.61,1.5-3.88,1.95l-0.14,0.05l0.45,0.93l0.11-0.04c1.31-0.48,2.75-1.24,4.29-2.26
			c1.14-0.81,2.1-1.66,2.86-2.53v3.88h-4.31v7.31h9.71v-7.31h-4.38v-3.88c1.49,1.69,3.8,3.25,6.86,4.64l0.09,0.04l0.83-0.89
			l-0.18-0.07C69.99,153.43,67.81,152.13,66.39,150.75z M68.63,158.81v2.33h-7.67v-2.33H68.63z M60.96,157.86v-2.14h7.67v2.14H60.96
			z"/>
		<path d="M152.39,157.44c-1.15-1.53-1.92-3.19-2.34-5.17h6.31v-1.08h-7.65c0.19-1.31,0.34-2.85,0.47-4.7l0.01-0.14h-1.06
			l-0.01,0.12c-0.12,1.71-0.28,3.33-0.49,4.72h-6.44v1.08h6.26c-0.4,2.04-0.93,3.56-1.58,4.62c-1.11,1.82-2.84,3.35-5.27,4.66
			l-0.15,0.08l0.78,0.83l0.09-0.05c2.63-1.41,4.46-3.06,5.59-5.05c0.68-1.18,1.21-2.82,1.63-5.1h0.45c0.42,2.14,1.24,3.98,2.49,5.72
			c1.16,1.73,2.65,3.18,4.56,4.42l0.11,0.07l0.7-1.05l-0.12-0.07C154.91,160.26,153.5,158.98,152.39,157.44z"/>
		<path d="M129.5,148.15l-0.08-0.09c-0.66-0.73-1.34-1.29-2.08-1.77l-0.1-0.06l-0.65,0.77l0.12,0.08c0.76,0.55,1.41,1.12,1.93,1.74
			h-8.7v1.03h7.66v2.95h-5.75v8.13H123v-7.1h4.59v8.65h1.16v-8.65h4.81v5.25c0,0.62-0.25,0.62-0.35,0.62c-0.7,0-1.51-0.18-2.42-0.53
			l-0.2-0.08l0.1,1.12l0.08,0.03c0.93,0.33,1.73,0.48,2.44,0.48c0.98,0,1.5-0.52,1.5-1.5v-6.42h-5.96v-2.95h7.66v-1.03h-7.47
			L129.5,148.15z"/>
		<path d="M81.18,150.15l0.11,0.11l0.64-0.84l-0.08-0.08c-0.82-0.8-1.75-1.52-2.76-2.14l-0.1-0.06l-0.58,0.77l0.12,0.08
			C79.42,148.55,80.32,149.28,81.18,150.15z"/>
		<path d="M90.12,153.13h3.68v-0.95h-3.91v-2.28h3.02v-0.95h-3.02v-2.61h-1.01v2.61h-2.94v-2.61h-1.02v2.61h-2.54v0.95h2.54v2.28
			h-3.56v0.95h3.45c-0.25,0.53-0.61,1.1-1.06,1.68c-0.62,0.79-1.38,1.52-2.29,2.18l-0.12,0.09l0.75,0.73l0.09-0.07
			c0.84-0.62,1.57-1.32,2.24-2.14v4.77c0,0.61,0.09,1.07,0.53,1.35c0.43,0.28,1.57,0.36,5.09,0.36c1.63,0,2.27-0.18,2.52-0.73
			c0.14-0.29,0.23-1.06,0.28-2.34l0-0.09l-1.09-0.53l-0.01,0.39c-0.03,0.82-0.05,1.59-0.16,1.85c-0.15,0.37-0.6,0.43-1.54,0.43
			c-2.6,0-3.98-0.01-4.34-0.21c-0.22-0.13-0.26-0.27-0.26-0.53v-1.8h5.06v-3.43c0.77,0.77,1.68,1.5,2.74,2.19l0.1,0.06l0.79-0.89
			l-0.14-0.08C92.28,155.38,90.98,154.29,90.12,153.13z M85.44,157.58v-1.86h4.04v1.86H85.44z M88.87,149.9v2.28h-2.94v-2.28H88.87z
			 M85.03,154.77c0.37-0.54,0.66-1.09,0.9-1.65h2.99c0.35,0.57,0.78,1.12,1.27,1.65H85.03z"/>
		<path d="M81.5,155.68l-0.84-0.58l-0.05,0.17c-0.69,2.32-1.66,4.49-2.88,6.45l-0.07,0.11l0.92,0.65l0.07-0.13
			c1.27-2.27,2.19-4.42,2.82-6.58L81.5,155.68z"/>
		<path d="M80.42,154.17l0.11,0.12l0.64-0.82l-0.08-0.08c-0.83-0.9-1.73-1.67-2.76-2.35l-0.1-0.07l-0.58,0.75l0.11,0.08
			C78.72,152.48,79.59,153.26,80.42,154.17z"/>
		<path d="M163.07,154.49h12.88v1.84h1v-2.79h-1.15l0.15-6.38h-3.94v0.95h2.9l-0.03,1.17h-2.87v0.97h2.85l-0.02,1.1h-3.1v0.95h3.08
			l-0.03,1.24h-3.62l0.64-0.71l-0.1-0.09c-0.41-0.38-0.79-0.72-1.19-1.05c0.36-0.36,0.69-0.75,0.99-1.18l0.06-0.09l-0.37-0.42
			l0.6-0.67l-0.16-0.15c-0.32-0.29-0.66-0.6-1.01-0.88c0.39-0.38,0.76-0.8,1.15-1.32l0.06-0.09l-0.61-0.68l-0.1,0.14
			c-0.35,0.5-0.75,0.95-1.23,1.39c-0.49-0.36-1.03-0.73-1.66-1.11l-0.1-0.06l-0.58,0.67l0.13,0.08c0.57,0.37,1.05,0.69,1.48,1.01
			c-0.52,0.39-1.11,0.73-1.74,1.02l-0.14,0.06l0.49,0.79l0.11-0.05c0.7-0.31,1.36-0.72,2.01-1.23c0.36,0.31,0.7,0.65,0.99,0.93
			l-0.02,0.03c-0.31,0.44-0.66,0.85-1.08,1.24c-0.47-0.34-0.95-0.66-1.48-1.01l-0.1-0.07l-0.57,0.7l0.13,0.08
			c0.4,0.25,0.82,0.54,1.29,0.89c-0.51,0.38-1.06,0.71-1.7,1l-0.14,0.06l0.49,0.75h-3.56l-0.01-1.31h3.08v-0.95h-3.1l-0.01-1.03h3
			v-0.97h-3l-0.01-0.7c1.09-0.2,2.14-0.55,3.22-1.07l0.13-0.06l-0.56-0.91l-0.11,0.04c-1.27,0.55-2.44,0.9-3.59,1.07l-0.12,0.02
			l0.14,5.87h-1.15v2.79h1.02V154.49z M167.83,153.51c0.71-0.32,1.37-0.72,1.97-1.19c0.48,0.43,0.86,0.79,1.22,1.16l0.06,0.07h-3.34
			L167.83,153.51z"/>
		<path d="M177.51,158.4h-7.61c0-0.01-0.01-0.02-0.01-0.04c-0.01-0.03-0.02-0.07-0.04-0.11c1.79-0.55,3.35-1.22,4.65-2.01l0.07-0.04
			v-0.82h-10.06v0.95h7.97c-0.85,0.37-1.82,0.71-2.9,1l0,0c-0.04,0.01-0.14,0.03-0.25,0.06l-0.01,0c-0.01,0-0.01,0-0.02,0.01
			c-0.12,0.03-0.3,0.08-0.47,0.12c-0.08,0.02-0.15,0.04-0.23,0.06l-0.16,0.04l0.08,0.15c0.1,0.19,0.18,0.38,0.27,0.63h-7.29v0.95
			h7.57c0.09,0.41,0.17,0.78,0.19,1.28c0.02,0.45-0.02,0.64-0.15,0.74c-0.08,0.06-0.16,0.09-0.34,0.09c-0.52,0-1.12-0.13-1.81-0.41
			l-0.2-0.08l0.1,1.12l0.08,0.03c0.74,0.24,1.4,0.36,2.02,0.36c0.4,0,0.73-0.1,0.96-0.3c0.29-0.26,0.42-0.72,0.42-1.56
			c0-0.42-0.06-0.8-0.16-1.28h7.35V158.4z"/>
		<path d="M104.07,157.15l-0.17-1.03l-0.16,0.09c-0.48,0.27-0.83,0.42-1.48,0.68v-4.65h1.79v-0.94h-1.79v-4.45h-1.02v4.45h-2.06
			v0.94h2.06v5.05c-0.73,0.28-1.41,0.54-2.23,0.77l-0.16,0.04l0.53,0.99l0.11-0.03c1.52-0.5,2.99-1.11,4.49-1.87L104.07,157.15z"/>
		<path d="M114.3,158.9c-0.1,1.17-0.22,2.01-0.33,2.33c-0.08,0.23-0.19,0.23-0.23,0.23c-0.2,0-0.58-0.36-1.05-1.38
			c-0.26-0.54-0.48-1.16-0.68-1.83c0,0,0,0,0.01-0.01l0.01-0.01c0.87-1.22,1.58-3.23,2.13-5.96l0.02-0.13l-1.07-0.21l-0.02,0.13
			c-0.38,1.95-0.87,3.54-1.45,4.71c-0.13-0.55-0.25-1.16-0.35-1.78c-0.21-1.38-0.36-2.86-0.43-4.4h4.13v-0.95h-4.18
			c-0.04-0.96-0.07-2-0.07-3.16v-0.13h-1.08v0.13c0,1.27,0.02,2.26,0.06,3.16h-5.06v4.97c0,1.8-0.24,3.2-0.71,4.28
			c-0.46,1.06-1.11,1.94-2,2.69l-0.1,0.08l0.65,0.82l0.1-0.09c0.96-0.8,1.69-1.74,2.23-2.89c0.55-1.19,0.84-2.77,0.84-4.79v-0.78
			h2.53c-0.07,2.03-0.2,3.48-0.38,4.07c-0.17,0.54-0.43,0.54-0.52,0.54c-0.28,0-0.66-0.04-1.41-0.29l-0.18-0.06v1.11l0.09,0.03
			c0.72,0.22,1.21,0.31,1.64,0.31c0.54,0,0.95-0.34,1.21-1.01c0.27-0.72,0.46-2.57,0.57-5.5l0-0.14h-3.56v-2.4h4.09
			c0.11,1.82,0.3,3.49,0.57,4.96c0.15,0.83,0.35,1.7,0.56,2.44c-0.86,1.22-1.99,2.34-3.46,3.35l-0.12,0.08l0.62,0.77l0.1-0.06
			c1.29-0.84,2.35-1.8,3.24-2.89c0.2,0.57,0.44,1.12,0.72,1.63c0.55,1,1.11,1.53,1.73,1.61c0.38,0.05,0.75-0.13,0.95-0.46
			c0.26-0.41,0.44-1.21,0.58-2.52l0.01-0.07l-0.95-0.76L114.3,158.9z"/>
		<path d="M113.1,149.35l0.06,0.15l0.91-0.63l-0.05-0.1c-0.42-0.82-0.86-1.46-1.47-2.16l-0.08-0.09l-0.83,0.56l0.09,0.11
			C112.38,147.99,112.77,148.61,113.1,149.35z"/>
	</g>
	<g>
		<path class="st0" d="M286.06,35.05L137.03,73.8c-0.22,0.05-0.63,0.2-0.89,0.37c-0.26,0.17-0.49,0.39-0.71,0.7l-32.35,42.73
			c-0.12,0.16-0.11,0.31-0.12,0.45c-0.01,0.25,0.2,0.49,0.4,0.53l32.39,7.05l1.9,0.66l6.04,1.3l4.15,0.58l40.66,8.77l3.66,1.11
			l4.68,1.01l3.2,0.41l63.56,13.73L286.06,35.05z"/>
		<path d="M290.66,50.08l-4.27-15.38L136.96,73.55c-0.25,0.07-0.68,0.22-0.96,0.41c-0.32,0.21-0.56,0.47-0.78,0.76l-32.55,43
			c-0.37,0.49-0.18,0.99,0.41,1.12l34.57,7.46c-3.02-1.13-5.29-2.77-6.45-4.14c-3.09-3.65-4.43-8.68-3.69-14.05
			c1.88-13.62,11.66-19.72,20.7-19.72c4.32,0,8.41,0.71,11.63,2.48l-0.53,6.06h-4.45l0.2-2.34c-1.63-1.01-7.44-1.93-12.23,0.02
			c-5.63,2.58-8.05,9.27-8.37,13.76c-0.22,3.2,0.23,7.39,2.47,10.42c2.25,3.05,8.57,5.38,16,2.89c3.3-1.16,4.78,2.26,4.78,2.26
			l-0.34,0.19c-4.91,2.92-9.61,3.76-13.68,3.48l48.47,10.46l6.76-12.36l-7.54-23.58h-3.14l0.37-4.26h8.04l6.46,20.19l8.95-16.35
			c0,0,1.53-3.84,6.43-3.84h1.64l-22.56,40.11c-0.23,0.41-0.46,0.78-0.72,1.1l66.97,14.45l0.42,0.09c0.25,0.05,0.58-0.41,0.73-1
			l25.7-100.39c0.07-0.28,0.15-0.63,0.15-1C290.83,50.81,290.74,50.39,290.66,50.08z M167.71,127.69c0,0-6.37,0.32-5.81-6.16
			l1.69-19.41h-3.35l0.37-4.26h9.69L167.71,127.69z M167.45,95.74c-1.75,0-3.05-1.42-2.89-3.17c0.16-1.75,1.69-3.16,3.44-3.16
			c1.75,0,3.05,1.42,2.89,3.16C170.74,94.32,169.19,95.74,167.45,95.74z M180.6,122.39c0.49,0.78,1.26,1.16,2.38,1.16
			c3.67,0,3.53,3.51,3.53,3.51s-2.81,0.63-4.68,0.63c-3.03,0-5.25-0.82-6.57-2.46c-1.31-1.61-1.81-4.11-1.52-7.46l2.15-24.8
			l6.48-1.57l-0.56,6.44h4.88l-0.36,4.14h-4.87l-1.43,16.45C179.89,120.21,180.08,121.54,180.6,122.39z M251.31,110.76
			c-0.31,3.58-0.73,6.12-1.27,7.77c-0.55,1.68-1.54,3.32-2.91,4.86c-2.56,2.86-6.28,4.31-11.05,4.31c-4.87,0-8.4-1.29-10.49-3.81
			c-2.07-2.52-2.61-6.43-2.15-11.75l1.23-14.3h-3.95l0.37-4.2h10.31l-0.34,4.2l-1.13,12.79c-0.28,3.19-0.29,5.55-0.1,6.99
			c0.16,1.36,0.62,2.5,1.33,3.37c1.38,1.68,3.28,2.51,5.81,2.51c2.43,0,4.44-0.76,6.14-2.34c1.59-1.46,2.55-4.62,2.97-9.4
			l1.24-14.29c0,0,0.33-3.82,4.49-3.82h0.99L251.31,110.76z"/>
	</g>
</g>
</svg>
