<?xml version="1.0" encoding="UTF-8"?><svg id="Chinese_Text_2" xmlns="http://www.w3.org/2000/svg" xmlns:xlink="http://www.w3.org/1999/xlink" viewBox="0 0 234.29 147.72"><defs><style>.cls-1{fill:url(#linear-gradient);}.cls-1,.cls-2,.cls-3,.cls-4{stroke-width:0px;}.cls-2{fill:url(#linear-gradient-2);}.cls-3{fill:#231f20;}.cls-4{fill:#fff;}</style><linearGradient id="linear-gradient" x1="233.76" y1=".52" x2="208.57" y2="118.07" gradientUnits="userSpaceOnUse"><stop offset="0" stop-color="#bf2169"/><stop offset=".19" stop-color="#b62065"/><stop offset=".49" stop-color="#9d205b"/><stop offset=".88" stop-color="#76204a"/><stop offset="1" stop-color="#682045"/></linearGradient><linearGradient id="linear-gradient-2" x1="220.14" y1="-1.84" x2="126.04" y2="97.24" gradientUnits="userSpaceOnUse"><stop offset="0" stop-color="#fbd5e0"/><stop offset=".35" stop-color="#bf2169"/><stop offset="1" stop-color="#682045"/></linearGradient></defs><path class="cls-3" d="M7.81,136.28c-.6-.82-1.56-1.23-2.53-1.23-2.25,0-3.85,1.98-3.85,4.2,0,2.34,1.58,4.19,3.85,4.19,1.23,0,2.21-.5,2.93-1.41l.9.76c-.9,1.21-2.21,1.77-3.82,1.77-2.9,0-5.14-2.24-5.14-5.31s2.14-5.31,5.14-5.31c1.37,0,2.71.47,3.57,1.58l-1.04.76Z"/><path class="cls-3" d="M35.9,140.44c0,2.2-1.03,4.11-3.81,4.11s-3.81-1.92-3.81-4.11v-6.25h1.2v6.08c0,1.63.6,3.17,2.61,3.17s2.61-1.54,2.61-3.17v-6.08h1.2v6.25Z"/><path class="cls-3" d="M11.03,134.19c.46,0,.81.37.81.81,0,.47-.34.81-.81.81s-.81-.34-.81-.81c0-.44.36-.81.81-.81M10.48,137.62h1.11v6.68h-1.11v-6.68Z"/><path class="cls-3" d="M17.16,138.56h-1.97v3.34c0,.85.02,1.54,1,1.54.33,0,.68-.07.98-.23l.04,1.01c-.38.17-.88.24-1.3.24-1.58,0-1.84-.85-1.84-2.24v-3.67h-1.46v-.94h1.46v-1.9h1.11v1.9h1.97v.94Z"/><path class="cls-3" d="M21.56,145.82c-.44,1.13-.88,1.9-2.22,1.9-.31,0-.7-.03-1-.17l.14-.97c.23.09.47.11.79.11.73,0,1-.44,1.24-1.1l.46-1.25-2.76-6.72h1.3l2.07,5.24h.03l1.98-5.24h1.21l-3.23,8.21Z"/><path class="cls-3" d="M37.37,139.2c0-.61-.06-1.14-.06-1.59h1.06c0,.36.03.73.03,1.1h.03c.3-.65,1.13-1.27,2.22-1.27,1.76,0,2.54,1.11,2.54,2.72v4.12h-1.11v-4.01c0-1.11-.49-1.81-1.53-1.81-1.44,0-2.07,1.05-2.07,2.57v3.25h-1.11v-5.09Z"/><path class="cls-3" d="M45.31,134.19c.45,0,.81.37.81.81,0,.47-.34.81-.81.81s-.81-.34-.81-.81c0-.44.36-.81.81-.81M44.75,137.62h1.11v6.68h-1.11v-6.68Z"/><polygon class="cls-3" points="51.19 144.3 49.96 144.3 47.24 137.62 48.54 137.62 50.62 142.85 50.65 142.85 52.63 137.62 53.83 137.62 51.19 144.3"/><path class="cls-3" d="M67.26,142.54c.44.54.93.9,1.71.9.7,0,1.47-.3,1.47-1.03s-.71-.9-1.43-1.06c-1.27-.28-2.35-.55-2.35-1.94,0-1.3,1.26-1.97,2.5-1.97.94,0,1.81.36,2.27,1.21l-.93.61c-.29-.47-.76-.8-1.41-.8-.61,0-1.31.3-1.31.93,0,.56.8.8,1.69.97,1.18.23,2.18.65,2.18,2,0,1.51-1.34,2.09-2.67,2.09-1.13,0-1.94-.3-2.6-1.24l.89-.69Z"/><path class="cls-3" d="M60.46,143.08c-.79,1.01-1.73,1.38-2.97,1.38-2.1,0-3.39-1.57-3.39-3.51,0-2.07,1.46-3.51,3.43-3.51s3.17,1.28,3.17,3.5v.36h-5.39c.09,1.16.97,2.14,2.19,2.14.95,0,1.6-.34,2.13-1.02l.84.66ZM59.51,140.36c-.04-1.13-.79-1.89-2.01-1.89s-2.04.76-2.19,1.89h4.2Z"/><path class="cls-3" d="M62.13,139.2c0-.61-.06-1.14-.06-1.59h1.06c0,.36.03.73.03,1.1h.03c.3-.65,1.13-1.27,2.23-1.27.14,0,.3.01.46.07l-.07,1.12c-.19-.06-.4-.09-.6-.09-1.36,0-1.95.96-1.95,2.49v3.25h-1.11v-5.09Z"/><path class="cls-3" d="M73.5,134.19c.46,0,.81.37.81.81,0,.47-.34.81-.81.81s-.81-.34-.81-.81c0-.44.36-.81.81-.81M72.94,137.62h1.11v6.68h-1.11v-6.68Z"/><path class="cls-3" d="M79.9,138.56h-1.97v3.34c0,.85.01,1.54,1,1.54.33,0,.68-.07.98-.23l.04,1.01c-.38.17-.88.24-1.3.24-1.58,0-1.84-.85-1.84-2.24v-3.67h-1.45v-.94h1.45v-1.9h1.11v1.9h1.97v.94Z"/><path class="cls-3" d="M84.09,145.82c-.44,1.13-.88,1.9-2.22,1.9-.32,0-.7-.03-1-.17l.14-.97c.23.09.47.11.79.11.73,0,1-.44,1.24-1.1l.46-1.25-2.77-6.72h1.3l2.07,5.24h.03l1.98-5.24h1.21l-3.23,8.21Z"/><path class="cls-3" d="M93.93,137.44c2.06,0,3.57,1.43,3.57,3.51s-1.51,3.51-3.57,3.51-3.56-1.42-3.56-3.51,1.51-3.51,3.56-3.51M93.93,143.44c1.44,0,2.37-1.09,2.37-2.48s-.93-2.48-2.37-2.48-2.37,1.08-2.37,2.48.93,2.48,2.37,2.48"/><path class="cls-3" d="M99.42,138.56h-1.45v-.94h1.45v-1.5c0-1.63.57-2.79,2.37-2.79.28,0,.64.06.86.17l-.16,1c-.24-.09-.5-.14-.75-.14-1.16,0-1.2.84-1.2,2v1.25h1.63v.94h-1.63v5.74h-1.11v-5.74Z"/><polygon class="cls-3" points="106.73 134.19 107.93 134.19 107.93 138.47 113.32 138.47 113.32 134.19 114.52 134.19 114.52 144.3 113.32 144.3 113.32 139.59 107.93 139.59 107.93 144.3 106.73 144.3 106.73 134.19"/><path class="cls-3" d="M119.48,137.44c2.06,0,3.57,1.43,3.57,3.51s-1.51,3.51-3.57,3.51-3.57-1.42-3.57-3.51,1.52-3.51,3.57-3.51M119.48,143.44c1.44,0,2.37-1.09,2.37-2.48s-.93-2.48-2.37-2.48-2.37,1.08-2.37,2.48.93,2.48,2.37,2.48"/><path class="cls-3" d="M124.44,139.2c0-.61-.06-1.14-.06-1.59h1.05c0,.36.03.73.03,1.1h.03c.3-.65,1.13-1.27,2.23-1.27,1.75,0,2.54,1.11,2.54,2.72v4.12h-1.11v-4.01c0-1.11-.48-1.81-1.52-1.81-1.44,0-2.07,1.05-2.07,2.57v3.25h-1.11v-5.09Z"/><path class="cls-3" d="M138.61,144c0,2.41-1.3,3.73-3.64,3.73-1.3,0-2.34-.34-3.28-1.27l.8-.92c.7.76,1.46,1.16,2.48,1.16,2,0,2.53-1.28,2.53-2.7v-.86h-.03c-.53.86-1.47,1.24-2.36,1.24-2.1,0-3.55-1.46-3.55-3.43,0-2.18,1.42-3.51,3.55-3.51.9,0,1.91.43,2.36,1.31h.03v-1.14h1.11v6.38ZM135.12,143.35c1.53,0,2.38-1.14,2.38-2.43,0-1.44-.97-2.46-2.38-2.46s-2.35,1.09-2.35,2.48,1.06,2.4,2.35,2.4"/><path class="cls-3" d="M155.02,137.44c2.05,0,3.57,1.43,3.57,3.51s-1.51,3.51-3.57,3.51-3.57-1.42-3.57-3.51,1.51-3.51,3.57-3.51M155.02,143.44c1.44,0,2.37-1.09,2.37-2.48s-.93-2.48-2.37-2.48-2.37,1.08-2.37,2.48.93,2.48,2.37,2.48"/><path class="cls-3" d="M159.98,139.2c0-.61-.06-1.14-.06-1.59h1.05c0,.36.03.73.03,1.1h.03c.3-.65,1.13-1.27,2.23-1.27,1.76,0,2.54,1.11,2.54,2.72v4.12h-1.11v-4.01c0-1.11-.48-1.81-1.53-1.81-1.44,0-2.07,1.05-2.07,2.57v3.25h-1.11v-5.09Z"/><path class="cls-3" d="M174.15,144c0,2.41-1.3,3.73-3.64,3.73-1.3,0-2.34-.34-3.28-1.27l.8-.92c.7.76,1.46,1.16,2.48,1.16,2,0,2.53-1.28,2.53-2.7v-.86h-.03c-.53.86-1.47,1.24-2.36,1.24-2.1,0-3.55-1.46-3.55-3.43,0-2.18,1.43-3.51,3.55-3.51.9,0,1.91.43,2.36,1.31h.03v-1.14h1.11v6.38ZM170.66,143.35c1.53,0,2.38-1.14,2.38-2.43,0-1.44-.97-2.46-2.38-2.46s-2.36,1.09-2.36,2.48,1.06,2.4,2.36,2.4"/><polygon class="cls-3" points="143.73 134.19 144.93 134.19 144.93 138.56 145.1 138.56 149.7 134.19 151.42 134.19 146.43 138.8 151.67 144.3 149.91 144.3 145.1 139.16 144.93 139.16 144.93 144.3 143.73 144.3 143.73 134.19"/><path class="cls-3" d="M9.84,116.05h6.07v-.95h-7.18v-1.76c1.97-.18,3.82-.44,5.51-.78l.18-.04-.54-1-.09.02c-3.91.78-7.88,1.17-11.82,1.17h-.17l.28,1.02h.1c1.94-.05,3.8-.15,5.55-.31v1.67H.52v.95h6.04c-.64.69-1.5,1.38-2.55,2.05-1.31.84-2.61,1.5-3.88,1.95l-.14.05.45.93.11-.04c1.31-.48,2.75-1.24,4.29-2.26,1.14-.81,2.1-1.66,2.86-2.53v3.88H3.4v7.31h9.71v-7.31h-4.38v-3.88c1.49,1.69,3.8,3.25,6.86,4.64l.09.04.83-.89-.18-.07c-2.88-1.18-5.06-2.48-6.48-3.87ZM12.09,124.11v2.33h-7.67v-2.33h7.67ZM4.42,123.16v-2.14h7.67v2.14h-7.67Z"/><path class="cls-3" d="M95.85,122.74c-1.15-1.53-1.92-3.19-2.34-5.17h6.31v-1.08h-7.65c.19-1.31.34-2.85.47-4.7v-.14s-1.05,0-1.05,0v.12c-.12,1.7-.29,3.33-.5,4.72h-6.44v1.08h6.26c-.4,2.04-.93,3.56-1.58,4.62-1.11,1.82-2.84,3.35-5.27,4.66l-.15.08.78.83.09-.05c2.63-1.41,4.46-3.06,5.59-5.05.68-1.18,1.21-2.82,1.63-5.1h.45c.42,2.14,1.24,3.98,2.49,5.72,1.16,1.73,2.65,3.18,4.56,4.42l.11.07.7-1.05-.12-.07c-1.79-1.09-3.2-2.38-4.31-3.92Z"/><path class="cls-3" d="M72.95,113.46l-.08-.09c-.66-.73-1.34-1.29-2.08-1.77l-.1-.06-.65.77.12.08c.76.55,1.41,1.12,1.93,1.74h-8.7v1.03h7.66v2.95h-5.75v8.13h1.16v-7.1h4.59v8.65h1.16v-8.65h4.81v5.25c0,.62-.25.62-.35.62-.7,0-1.51-.18-2.42-.53l-.2-.08.1,1.12.08.03c.93.33,1.73.48,2.44.48.98,0,1.5-.52,1.5-1.5v-6.42h-5.96v-2.95h7.66v-1.03h-7.47l.56-.67Z"/><path class="cls-3" d="M24.64,115.45l.11.11.64-.84-.08-.08c-.82-.8-1.75-1.52-2.76-2.14l-.1-.06-.58.77.12.08c.9.58,1.8,1.31,2.66,2.17Z"/><path class="cls-3" d="M33.58,118.43h3.68v-.95h-3.91v-2.28h3.02v-.95h-3.02v-2.61h-1.01v2.61h-2.94v-2.61h-1.02v2.61h-2.54v.95h2.54v2.28h-3.56v.95h3.45c-.25.53-.61,1.1-1.06,1.68-.62.79-1.38,1.52-2.29,2.18l-.12.09.75.73.09-.07c.84-.62,1.57-1.32,2.24-2.14v4.77c0,.61.09,1.07.53,1.35.43.28,1.57.36,5.09.36,1.63,0,2.27-.18,2.52-.73.14-.29.23-1.06.28-2.34v-.09s-1.08-.53-1.08-.53v.39c-.04.82-.07,1.59-.17,1.85-.15.37-.6.43-1.54.43-2.6,0-3.98,0-4.34-.21-.22-.13-.26-.27-.26-.53v-1.8h5.06v-3.43c.77.77,1.68,1.5,2.74,2.19l.09.06.79-.89-.14-.08c-1.71-1-3.01-2.09-3.87-3.24ZM28.9,122.89v-1.86h4.04v1.86h-4.04ZM32.33,115.21v2.28h-2.94v-2.28h2.94ZM28.49,120.08c.37-.54.66-1.09.9-1.65h2.99c.35.57.78,1.12,1.27,1.65h-5.17Z"/><path class="cls-3" d="M24.96,120.98l-.84-.58-.05.17c-.69,2.32-1.66,4.49-2.88,6.45l-.07.11.92.65.07-.13c1.27-2.27,2.19-4.42,2.82-6.58l.03-.09Z"/><path class="cls-3" d="M23.88,119.48l.11.12.64-.82-.08-.08c-.83-.9-1.73-1.67-2.76-2.35l-.1-.07-.58.75.11.08c.96.69,1.83,1.47,2.66,2.38Z"/><path class="cls-3" d="M106.53,119.8h12.88v1.84h1v-2.79h-1.15l.15-6.38h-3.94v.95h2.9l-.03,1.17h-2.87v.97h2.85l-.02,1.1h-3.1v.95h3.08l-.03,1.24h-3.62l.64-.71-.1-.09c-.41-.38-.79-.72-1.19-1.05.36-.36.69-.75.99-1.18l.06-.09-.37-.42.6-.67-.16-.15c-.32-.29-.66-.6-1.01-.88.39-.38.76-.8,1.15-1.32l.06-.09-.61-.68-.1.14c-.35.5-.75.95-1.23,1.39-.49-.36-1.03-.73-1.66-1.11l-.1-.06-.58.67.13.08c.57.37,1.05.69,1.48,1.01-.52.39-1.11.73-1.74,1.02l-.14.06.49.79.11-.05c.7-.31,1.36-.72,2.01-1.23.36.31.7.65.99.93l-.02.03c-.31.44-.66.85-1.08,1.24-.47-.34-.95-.66-1.48-1.01l-.1-.07-.57.7.13.08c.4.25.82.54,1.29.89-.51.38-1.06.71-1.7,1l-.14.06.49.75h-3.56v-1.31s3.07,0,3.07,0v-.95h-3.1v-1.03s2.98,0,2.98,0v-.97h-3v-.7c1.07-.2,2.13-.55,3.21-1.07l.13-.06-.56-.91-.11.04c-1.27.55-2.44.9-3.59,1.07l-.12.02.14,5.87h-1.15v2.79h1.02v-1.84ZM111.28,118.81c.71-.32,1.37-.72,1.97-1.19.48.43.86.79,1.22,1.16l.06.07h-3.34l.08-.04Z"/><path class="cls-3" d="M120.97,123.71h-7.61s0-.02-.01-.04c-.01-.03-.02-.07-.04-.11,1.79-.55,3.35-1.22,4.65-2.01l.07-.04v-.82h-10.06v.95h7.97c-.85.37-1.82.71-2.9,1h0s-.14.03-.25.06h0s-.01,0-.02,0c-.12.03-.3.08-.47.12-.08.02-.15.04-.23.06l-.16.04.08.15c.1.19.18.38.27.63h-7.29v.95h7.57c.09.41.17.78.19,1.28.02.45-.02.64-.15.74-.08.06-.16.09-.34.09-.52,0-1.12-.13-1.81-.41l-.2-.08.1,1.12.08.03c.74.24,1.4.36,2.02.36.4,0,.73-.1.96-.3.29-.26.42-.72.42-1.56,0-.42-.06-.8-.16-1.28h7.35v-.95Z"/><path class="cls-3" d="M47.53,122.45l-.17-1.03-.16.09c-.48.27-.83.42-1.48.68v-4.65h1.79v-.94h-1.79v-4.45h-1.02v4.45h-2.06v.94h2.06v5.05c-.73.28-1.41.54-2.23.77l-.16.04.53.99.11-.03c1.52-.5,2.99-1.11,4.49-1.87l.09-.04Z"/><path class="cls-3" d="M57.76,124.2c-.1,1.17-.22,2.01-.33,2.33-.08.23-.19.23-.23.23-.2,0-.58-.36-1.05-1.38-.26-.54-.48-1.16-.68-1.83,0,0,0,0,0,0h.01c.87-1.24,1.58-3.24,2.13-5.97l.02-.13-1.07-.21-.02.13c-.38,1.95-.87,3.54-1.45,4.71-.13-.55-.25-1.16-.35-1.78-.21-1.38-.36-2.86-.43-4.4h4.13v-.95h-4.18c-.04-.96-.07-2-.07-3.16v-.13h-1.08v.13c0,1.27.02,2.26.06,3.16h-5.06v4.97c0,1.8-.24,3.2-.71,4.28-.46,1.06-1.11,1.94-2,2.69l-.1.08.65.82.1-.09c.96-.8,1.69-1.74,2.23-2.89.55-1.19.84-2.77.84-4.79v-.78h2.53c-.07,2.03-.2,3.48-.38,4.07-.17.54-.43.54-.52.54-.28,0-.66-.04-1.41-.29l-.18-.06v1.11l.09.03c.72.22,1.21.31,1.64.31.54,0,.95-.34,1.21-1.01.27-.72.46-2.57.57-5.5v-.14s-3.56,0-3.56,0v-2.4h4.09c.11,1.82.3,3.49.57,4.96.15.83.35,1.7.56,2.44-.86,1.22-1.99,2.34-3.46,3.35l-.12.08.62.77.1-.06c1.29-.84,2.35-1.8,3.24-2.89.2.57.44,1.12.72,1.63.55,1,1.11,1.53,1.73,1.61.38.05.75-.13.95-.46.26-.41.44-1.21.58-2.52v-.07s-.94-.76-.94-.76l-.02.25Z"/><path class="cls-3" d="M56.56,114.66l.06.15.91-.63-.05-.1c-.42-.82-.86-1.46-1.47-2.16l-.08-.09-.83.56.09.11c.64.79,1.04,1.42,1.36,2.16Z"/><path class="cls-4" d="M229.52.36L80.49,39.11c-.22.05-.63.2-.89.37-.26.17-.49.39-.71.7l-32.35,42.73c-.12.16-.11.31-.12.45,0,.25.2.49.4.53l32.39,7.05,1.9.66,6.04,1.3,4.15.58,40.66,8.77,3.66,1.11,4.68,1.01,3.2.41,63.56,13.73L229.52.36Z"/><path class="cls-1" d="M234.11,15.38c.09.31.17.74.17,1.15,0,.37-.08.72-.15,1l-25.7,100.39c-.15.59-.48,1.05-.73,1l-.42-.09L229.85,0l4.27,15.38Z"/><path class="cls-2" d="M207.28,118.82L229.85,0,80.42,38.85c-.25.07-.68.22-.96.41-.32.21-.56.47-.78.76l-32.55,43c-.37.49-.18.99.41,1.12l34.57,7.46c-3.02-1.13-5.29-2.77-6.45-4.14-3.09-3.65-4.43-8.68-3.69-14.05,1.88-13.62,11.66-19.72,20.7-19.72,4.32,0,8.41.71,11.63,2.48l-.53,6.06h-4.45l.2-2.34c-1.63-1.01-7.44-1.93-12.23.02-5.63,2.58-8.05,9.27-8.37,13.76-.22,3.2.23,7.39,2.47,10.42,2.25,3.05,8.57,5.38,16,2.89,3.3-1.16,4.78,2.26,4.78,2.26l-.34.19c-4.91,2.92-9.61,3.76-13.68,3.48l48.47,10.46,6.76-12.36-7.54-23.58h-3.14l.37-4.26h8.04l6.46,20.19,8.95-16.35s1.53-3.84,6.43-3.84h1.64l-22.56,40.11c-.23.41-.46.78-.72,1.1l66.97,14.45ZM104.07,63.16h9.69l-2.59,29.84s-6.37.32-5.81-6.16l1.69-19.41h-3.35l.37-4.26ZM114.34,57.88c-.14,1.75-1.69,3.17-3.44,3.17s-3.05-1.42-2.89-3.17c.16-1.75,1.69-3.16,3.44-3.16s3.05,1.42,2.89,3.16ZM119.36,58.29l6.48-1.57-.56,6.44h4.88l-.36,4.14h-4.87l-1.43,16.45c-.15,1.77.04,3.09.56,3.94.49.78,1.26,1.16,2.38,1.16,3.67,0,3.53,3.51,3.53,3.51,0,0-2.81.63-4.68.63-3.03,0-5.25-.82-6.57-2.46-1.31-1.61-1.81-4.11-1.52-7.46l2.15-24.8ZM194.76,76.07c-.31,3.58-.73,6.12-1.27,7.77-.55,1.68-1.54,3.32-2.91,4.86-2.56,2.86-6.28,4.31-11.05,4.31s-8.4-1.29-10.49-3.81c-2.07-2.52-2.61-6.43-2.15-11.75l1.23-14.3h-3.95l.37-4.2h10.31l-.34,4.2-1.13,12.79c-.28,3.19-.29,5.55-.1,6.99.16,1.36.62,2.5,1.33,3.37,1.38,1.68,3.28,2.51,5.81,2.51s4.44-.76,6.14-2.34c1.59-1.46,2.55-4.62,2.97-9.4l1.24-14.29s.33-3.82,4.49-3.82h.99l-1.49,17.11Z"/></svg>