<?xml version="1.0" encoding="utf-8"?>
<!-- Generator: Adobe Illustrator 27.9.0, SVG Export Plug-In . SVG Version: 6.00 Build 0)  -->
<svg version="1.1" id="Chinese_Text_2" xmlns="http://www.w3.org/2000/svg" xmlns:xlink="http://www.w3.org/1999/xlink" x="0px"
	 y="0px" viewBox="0 0 113.8 72.6" style="enable-background:new 0 0 113.8 72.6;" xml:space="preserve">
<style type="text/css">
	.st0{fill:#FFFFFF;}
</style>
<g>
	<g>
		<g>
			<path class="st0" d="M110.7,0.7L20.8,24c-0.1,0-0.4,0.1-0.5,0.2c-0.2,0.1-0.3,0.2-0.4,0.4L0.4,50.4c-0.1,0.1-0.1,0.2-0.1,0.3
				c0,0.2,0.1,0.3,0.2,0.3L20,55.2l1.1,0.4l3.6,0.8l2.5,0.3L51.7,62l2.2,0.7l2.8,0.6l1.9,0.2l38.3,8.3L110.7,0.7z"/>
			<path d="M113.5,9.7l-2.6-9.3L20.8,23.9c-0.1,0-0.4,0.1-0.6,0.2s-0.3,0.3-0.5,0.5L0.1,50.5c-0.2,0.3-0.1,0.6,0.2,0.7l20.8,4.5
				C19.4,55,18,54,17.3,53.2c-1.9-2.2-2.7-5.2-2.2-8.5c1.1-8.2,7-11.9,12.5-11.9c2.6,0,5.1,0.4,7,1.5L34.3,38h-2.7l0.1-1.4
				c-1-0.6-4.5-1.2-7.4,0c-3.4,1.6-4.9,5.6-5,8.3c-0.1,1.9,0.1,4.5,1.5,6.3s5.2,3.2,9.6,1.7c2-0.7,2.9,1.4,2.9,1.4l-0.2,0.1
				c-3,1.8-5.8,2.3-8.2,2.1l29.2,6.3l4.1-7.5l-4.5-14.2h-1.9l0.2-2.6h4.8l3.9,12.2l5.4-9.9c0,0,0.9-2.3,3.9-2.3h1L57.3,62.7
				c-0.1,0.2-0.3,0.5-0.4,0.7l40.4,8.7l0.3,0.1c0.2,0,0.3-0.2,0.4-0.6L113.5,11c0-0.2,0.1-0.4,0.1-0.6
				C113.6,10.2,113.5,9.9,113.5,9.7z M39.3,56.5c0,0-3.8,0.2-3.5-3.7l1-11.7h-2l0.2-2.6h5.8L39.3,56.5z M39.2,37.2
				c-1.1,0-1.8-0.8-1.7-1.9c0.1-1,1-1.9,2.1-1.9c1,0,1.8,0.9,1.7,1.9C41.2,36.4,40.2,37.2,39.2,37.2z M47.1,53.3
				c0.3,0.5,0.8,0.7,1.4,0.7c2.2,0,2.1,2.1,2.1,2.1s-1.7,0.4-2.8,0.4c-1.8,0-3.2-0.5-4-1.5s-1.1-2.5-0.9-4.5l1.3-15l3.9-1l-0.3,3.9
				h2.9L50.6,41h-2.9l-0.9,9.9C46.7,52,46.8,52.8,47.1,53.3z M89.7,46.3C89.5,48.5,89.3,50,89,51s-0.9,2-1.8,2.9
				c-1.5,1.7-3.8,2.6-6.7,2.6c-2.9,0-5.1-0.8-6.3-2.3c-1.2-1.5-1.6-3.9-1.3-7.1l0.7-8.6h-2.4l0.2-2.5h6.2l-0.2,2.5l-0.7,7.7
				c-0.2,1.9-0.2,3.3-0.1,4.2c0.1,0.8,0.4,1.5,0.8,2c0.8,1,2,1.5,3.5,1.5s2.7-0.5,3.7-1.4s1.5-2.8,1.8-5.7l0.8-8.6
				c0,0,0.2-2.3,2.7-2.3h0.6L89.7,46.3z"/>
		</g>
	</g>
</g>
</svg>
