<?xml version="1.0" encoding="utf-8"?>
<!-- Generator: Adobe Illustrator 27.9.0, SVG Export Plug-In . SVG Version: 6.00 Build 0)  -->
<svg version="1.1" id="Chinese_Text_2" xmlns="http://www.w3.org/2000/svg" xmlns:xlink="http://www.w3.org/1999/xlink" x="0px"
	 y="0px" viewBox="0 0 380.26 71.7" style="enable-background:new 0 0 380.26 71.7;" xml:space="preserve">
<style type="text/css">
	.st0{fill:#FFFFFF;}
</style>
<g>
	<g>
		<path d="M135.36,52.92c-0.99,1.27-2.32,1.91-3.95,1.91c-2.97,0-5.21-2.44-5.21-5.68c0-3.19,2.29-5.69,5.21-5.69
			c1.38,0,2.62,0.6,3.39,1.64l0.11,0.15l1.77-1.29l-0.12-0.16c-1.14-1.48-2.97-2.29-5.15-2.29c-4.22,0-7.39,3.28-7.39,7.63
			c0,4.35,3.18,7.63,7.39,7.63c2.4,0,4.25-0.86,5.51-2.56l0.11-0.14l-1.55-1.3L135.36,52.92z"/>
		<path d="M175.11,50.58c0,1.94-0.6,4.25-3.47,4.25c-2.87,0-3.47-2.31-3.47-4.25v-8.71h-2.06v8.95c0,3.78,2.02,5.95,5.53,5.95
			c3.51,0,5.53-2.17,5.53-5.95v-8.95h-2.06V50.58z"/>
		<rect x="139.25" y="46.67" width="1.94" height="9.74"/>
		<path d="M140.22,41.87c-0.73,0-1.33,0.6-1.33,1.33c0,0.77,0.56,1.33,1.33,1.33c0.77,0,1.33-0.56,1.33-1.33
			C141.55,42.46,140.95,41.87,140.22,41.87z"/>
		<path d="M149.15,54.53c-0.37,0.19-0.83,0.3-1.29,0.3c-1.16,0-1.21-0.67-1.21-1.97v-4.49h2.76v-1.7h-2.76v-2.66h-1.94v2.66h-2.04
			v1.7h2.04v4.95c0,1.69,0.21,3.33,2.77,3.33c0.7,0,1.39-0.13,1.89-0.36l0.12-0.05l-0.07-1.85L149.15,54.53z"/>
		<path d="M155.6,53.73l-2.79-7.06h-2.23l3.96,9.61l-0.62,1.69c-0.33,0.92-0.68,1.42-1.56,1.42c-0.46,0-0.76-0.04-1.03-0.15
			l-0.22-0.09l-0.25,1.73l0.13,0.06c0.37,0.18,0.85,0.26,1.48,0.26c2.05,0,2.7-1.26,3.29-2.78l4.63-11.76h-2.11L155.6,53.73z"/>
		<path d="M184.15,46.43c-1.37,0-2.41,0.63-2.98,1.38c0-0.07-0.01-0.13-0.01-0.2c-0.01-0.25-0.02-0.5-0.02-0.75v-0.19h-1.86v0.19
			c0,0.29,0.02,0.6,0.04,0.94c0.02,0.38,0.04,0.82,0.04,1.28v7.33h1.94v-4.75c0-1.56,0.47-3.41,2.71-3.41
			c1.61,0,1.95,1.28,1.95,2.35v5.81h1.94v-5.97C187.9,47.89,186.54,46.43,184.15,46.43z"/>
		<path d="M190.96,41.87c-0.73,0-1.33,0.6-1.33,1.33c0,0.76,0.57,1.33,1.33,1.33c0.76,0,1.33-0.57,1.33-1.33
			C192.29,42.46,191.69,41.87,190.96,41.87z"/>
		<rect x="189.99" y="46.67" width="1.94" height="9.74"/>
		<polygon points="198.88,53.72 196.07,46.67 193.84,46.67 197.81,56.41 199.79,56.41 203.64,46.67 201.55,46.67 		"/>
		<path d="M226.86,50.53c-1.09-0.21-2.21-0.52-2.21-1.17c0-0.72,0.85-1.11,1.65-1.11c0.98,0,1.53,0.56,1.82,1.03l0.1,0.17l1.61-1.07
			l-0.08-0.15c-0.62-1.16-1.81-1.8-3.35-1.8c-1.83,0-3.69,1.01-3.69,2.95c0,2.14,1.75,2.53,3.45,2.9c1.05,0.23,1.85,0.48,1.85,1.29
			c0,0.99-1.18,1.25-1.87,1.25c-0.91,0-1.56-0.34-2.25-1.19l-0.12-0.14l-1.54,1.19l0.1,0.15c0.89,1.28,2.03,1.82,3.8,1.82
			c1.81,0,3.93-0.82,3.93-3.13C230.07,51.43,228.45,50.84,226.86,50.53z"/>
		<path d="M209.01,46.43c-2.89,0-4.99,2.15-4.99,5.11c0,3.01,2.03,5.11,4.94,5.11c1.9,0,3.23-0.62,4.31-2.01l0.12-0.15l-1.48-1.16
			l-0.12,0.15c-0.73,0.93-1.6,1.35-2.83,1.35c-1.45,0-2.65-1.11-2.85-2.62h7.54v-0.69C213.64,48.43,211.83,46.43,209.01,46.43z
			 M206.12,50.51c0.27-1.4,1.34-2.26,2.84-2.26c1.49,0,2.48,0.86,2.61,2.26H206.12z"/>
		<path d="M220.49,46.43c-1.37,0-2.41,0.63-2.98,1.38c0-0.07-0.01-0.13-0.01-0.2c-0.01-0.25-0.02-0.5-0.02-0.75v-0.19h-1.86v0.19
			c0,0.29,0.02,0.6,0.04,0.94c0.02,0.38,0.04,0.82,0.04,1.28v7.33h1.94v-4.75c0-2.19,0.86-3.29,2.55-3.29
			c0.27,0,0.55,0.04,0.78,0.11l0.23,0.07l0.13-1.96l-0.13-0.05C220.92,46.44,220.66,46.43,220.49,46.43z"/>
		<rect x="231.82" y="46.67" width="1.94" height="9.74"/>
		<path d="M232.79,41.87c-0.73,0-1.33,0.6-1.33,1.33c0,0.76,0.57,1.33,1.33,1.33c0.76,0,1.33-0.57,1.33-1.33
			C234.12,42.46,233.53,41.87,232.79,41.87z"/>
		<path d="M241.94,54.53c-0.37,0.19-0.83,0.3-1.29,0.3c-1.16,0-1.21-0.67-1.21-1.97v-4.49h2.76v-1.7h-2.76v-2.66h-1.94v2.66h-2.04
			v1.7h2.04v4.95c0,1.69,0.21,3.33,2.77,3.33c0.7,0,1.39-0.13,1.89-0.36l0.12-0.05l-0.07-1.85L241.94,54.53z"/>
		<path d="M248.54,53.73l-2.79-7.06h-2.23l3.96,9.61l-0.62,1.69c-0.33,0.92-0.68,1.42-1.56,1.42c-0.46,0-0.76-0.04-1.03-0.15
			l-0.22-0.09l-0.25,1.73l0.13,0.06c0.37,0.18,0.85,0.26,1.48,0.26c2.05,0,2.7-1.26,3.29-2.78l4.63-11.76h-2.11L248.54,53.73z"/>
		<path d="M262.99,46.43c-3,0-5.18,2.15-5.18,5.11c0,3.01,2.13,5.11,5.18,5.11c3.01,0,5.19-2.15,5.19-5.11
			C268.18,48.58,266,46.43,262.99,46.43z M266.12,51.54c0,1.94-1.29,3.29-3.13,3.29c-1.84,0-3.13-1.35-3.13-3.29
			c0-1.94,1.29-3.29,3.13-3.29C264.83,48.25,266.12,49.6,266.12,51.54z"/>
		<path d="M274.31,40.66c-2.36,0-3.51,1.34-3.51,4.09v1.91h-2.04v1.7h2.04v8.04h1.94v-8.04h2.28v-1.7h-2.28V45.1
			c0-1.81,0.14-2.61,1.49-2.61c0.31,0,0.64,0.06,0.99,0.19l0.22,0.08l0.28-1.76l-0.12-0.06C275.25,40.74,274.68,40.66,274.31,40.66z
			"/>
		<polygon points="291.5,47.86 284.32,47.86 284.32,41.87 282.26,41.87 282.26,56.41 284.32,56.41 284.32,49.81 291.5,49.81 
			291.5,56.41 293.56,56.41 293.56,41.87 291.5,41.87 		"/>
		<path d="M300.71,46.43c-3.01,0-5.19,2.15-5.19,5.11c0,2.96,2.18,5.11,5.19,5.11c3.05,0,5.19-2.1,5.19-5.11
			C305.9,48.58,303.71,46.43,300.71,46.43z M303.84,51.54c0,1.94-1.29,3.29-3.13,3.29c-1.85,0-3.13-1.35-3.13-3.29
			c0-1.94,1.29-3.29,3.13-3.29C302.55,48.25,303.84,49.6,303.84,51.54z"/>
		<path d="M312.26,46.43c-1.37,0-2.41,0.63-2.98,1.38c0-0.07,0-0.13-0.01-0.2c-0.01-0.25-0.02-0.5-0.02-0.75v-0.19h-1.86v0.19
			c0,0.29,0.02,0.6,0.03,0.94c0.02,0.38,0.04,0.82,0.04,1.28v7.33h1.94v-4.75c0-1.56,0.47-3.41,2.71-3.41
			c1.61,0,1.95,1.28,1.95,2.35v5.81h1.94v-5.97C316.01,47.89,314.64,46.43,312.26,46.43z"/>
		<path d="M326.15,47.86c-0.81-1.05-2.15-1.43-3.15-1.43c-3.14,0-5.17,2.01-5.17,5.11c0,2.89,2.17,4.99,5.17,4.99
			c1.27,0,2.41-0.52,3.15-1.4v0.67c0,2.41-1.1,3.59-3.35,3.59c-1.32,0-2.35-0.48-3.34-1.56l-0.14-0.16l-1.38,1.58l0.13,0.13
			c1.29,1.27,2.75,1.83,4.73,1.83c3.41,0,5.29-1.92,5.29-5.41v-9.13h-1.94V47.86z M326.15,51.5c0,1.55-0.99,3.21-3.15,3.21
			c-1.74,0-3.11-1.39-3.11-3.17c0-1.91,1.31-3.29,3.11-3.29C324.86,48.25,326.15,49.58,326.15,51.5z"/>
		<path d="M352.49,46.43c-3.01,0-5.19,2.15-5.19,5.11c0,2.96,2.18,5.11,5.19,5.11c3.01,0,5.19-2.15,5.19-5.11
			C357.68,48.58,355.5,46.43,352.49,46.43z M355.62,51.54c0,1.94-1.29,3.29-3.13,3.29c-1.85,0-3.13-1.35-3.13-3.29
			c0-1.94,1.29-3.29,3.13-3.29C354.34,48.25,355.62,49.6,355.62,51.54z"/>
		<path d="M364.43,46.43c-1.37,0-2.41,0.63-2.98,1.38c0-0.07-0.01-0.13-0.01-0.2c-0.01-0.25-0.02-0.5-0.02-0.75v-0.19h-1.86v0.19
			c0,0.29,0.02,0.6,0.03,0.94c0.02,0.38,0.04,0.82,0.04,1.28v7.33h1.94v-4.75c0-1.56,0.47-3.41,2.71-3.41
			c1.61,0,1.95,1.28,1.95,2.35v5.81h1.94v-5.97C368.18,47.89,366.81,46.43,364.43,46.43z"/>
		<path d="M378.32,46.67v1.19c-0.81-1.05-2.15-1.43-3.15-1.43c-3.14,0-5.17,2.01-5.17,5.11c0,2.89,2.17,4.99,5.17,4.99
			c1.27,0,2.41-0.52,3.15-1.4v0.67c0,2.41-1.1,3.59-3.35,3.59c-1.32,0-2.35-0.48-3.34-1.56l-0.14-0.16l-1.38,1.58l0.13,0.13
			c1.29,1.27,2.75,1.83,4.73,1.83c3.41,0,5.29-1.92,5.29-5.41v-9.13H378.32z M378.32,51.5c0,1.55-0.99,3.21-3.15,3.21
			c-1.74,0-3.11-1.39-3.11-3.17c0-1.91,1.31-3.29,3.11-3.29C377.03,48.25,378.32,49.58,378.32,51.5z"/>
		<polygon points="347.19,41.87 344.21,41.87 337.79,47.96 337.79,41.87 335.73,41.87 335.73,56.41 337.79,56.41 337.79,49.24 
			344.5,56.41 347.49,56.41 339.98,48.52 		"/>
	</g>
	<g>
		<path d="M133.37,20.11h6v-0.94h-7.1v-1.74c1.95-0.17,3.78-0.43,5.44-0.77l0.17-0.04l-0.53-0.98l-0.09,0.02
			c-3.86,0.77-7.79,1.16-11.68,1.16h-0.17l0.28,1.01l0.1,0c1.91-0.05,3.76-0.15,5.48-0.3v1.65h-7.1v0.94h5.97
			c-0.64,0.68-1.48,1.36-2.52,2.03c-1.29,0.83-2.58,1.48-3.83,1.92l-0.14,0.05l0.45,0.92l0.11-0.04c1.29-0.48,2.72-1.23,4.24-2.24
			c1.13-0.8,2.08-1.64,2.82-2.5v3.84H127v7.22h9.59v-7.22h-4.33v-3.84c1.48,1.67,3.75,3.22,6.78,4.59l0.09,0.04l0.82-0.88
			l-0.17-0.07C136.92,22.76,134.77,21.47,133.37,20.11z M135.59,28.07v2.31h-7.58v-2.31H135.59z M128.01,27.13v-2.11h7.58v2.11
			H128.01z"/>
		<path d="M218.35,26.71c-1.14-1.51-1.9-3.15-2.31-5.11h6.23v-1.07h-7.56c0.19-1.3,0.34-2.82,0.46-4.64l0.01-0.14h-1.05l-0.01,0.12
			c-0.12,1.69-0.28,3.29-0.48,4.66h-6.37v1.07h6.18c-0.39,2.01-0.92,3.52-1.56,4.57c-1.1,1.8-2.8,3.31-5.2,4.61l-0.15,0.08
			l0.77,0.82l0.09-0.05c2.6-1.4,4.4-3.03,5.52-4.99c0.67-1.17,1.2-2.79,1.6-5.04h0.44c0.42,2.11,1.23,3.93,2.46,5.66
			c1.15,1.71,2.62,3.14,4.51,4.36l0.11,0.07l0.69-1.04l-0.12-0.07C220.84,29.51,219.45,28.24,218.35,26.71z"/>
		<path d="M195.73,17.54l-0.08-0.08c-0.65-0.72-1.33-1.27-2.06-1.75l-0.1-0.06l-0.64,0.76l0.12,0.08c0.76,0.54,1.4,1.1,1.91,1.72
			h-8.6v1.02h7.57v2.91h-5.68v8.04h1.15v-7.02h4.53v8.55h1.14v-8.55h4.75v5.19c0,0.61-0.25,0.61-0.34,0.61
			c-0.69,0-1.5-0.18-2.39-0.52l-0.2-0.08l0.1,1.1l0.08,0.03c0.92,0.32,1.71,0.48,2.41,0.48c0.97,0,1.48-0.51,1.48-1.48v-6.35h-5.89
			v-2.91h7.57V18.2h-7.38L195.73,17.54z"/>
		<path d="M147.99,19.51l0.11,0.11l0.63-0.84l-0.08-0.08c-0.81-0.79-1.73-1.5-2.73-2.11l-0.1-0.06l-0.57,0.76l0.12,0.08
			C146.25,17.94,147.14,18.66,147.99,19.51z"/>
		<path d="M156.82,22.46h3.63v-0.94h-3.86v-2.25h2.98v-0.94h-2.98v-2.58h-1v2.58h-2.91v-2.58h-1.01v2.58h-2.51v0.94h2.51v2.25h-3.52
			v0.94h3.41c-0.25,0.53-0.6,1.08-1.04,1.66c-0.61,0.78-1.37,1.5-2.26,2.15l-0.12,0.09l0.74,0.72l0.09-0.07
			c0.83-0.61,1.56-1.31,2.22-2.12v4.72c0,0.6,0.09,1.06,0.53,1.34c0.43,0.27,1.55,0.35,5.03,0.35c1.61,0,2.24-0.18,2.49-0.72
			c0.13-0.29,0.22-1.05,0.28-2.32l0-0.09l-1.07-0.52l-0.01,0.39c-0.03,0.81-0.05,1.58-0.16,1.83c-0.15,0.36-0.59,0.42-1.52,0.42
			c-2.57,0-3.93-0.01-4.28-0.21c-0.22-0.13-0.26-0.26-0.26-0.52V27.8h5V24.4c0.76,0.76,1.66,1.49,2.71,2.16l0.09,0.06l0.78-0.88
			l-0.14-0.08C158.96,24.68,157.67,23.6,156.82,22.46z M152.2,26.86v-1.83h4v1.83H152.2z M155.59,19.27v2.25h-2.91v-2.25H155.59z
			 M151.79,24.08c0.36-0.54,0.66-1.07,0.89-1.63h2.96c0.35,0.56,0.77,1.1,1.25,1.63H151.79z"/>
		<path d="M148.3,24.98l-0.83-0.57l-0.05,0.17c-0.68,2.3-1.64,4.44-2.84,6.37l-0.07,0.1l0.91,0.64l0.07-0.13
			c1.26-2.24,2.17-4.37,2.78-6.5L148.3,24.98z"/>
		<path d="M147.24,23.49l0.1,0.12l0.63-0.81l-0.07-0.08c-0.82-0.89-1.71-1.65-2.72-2.32l-0.1-0.07l-0.57,0.74l0.11,0.08
			C145.56,21.82,146.42,22.59,147.24,23.49z"/>
		<path d="M228.91,23.81h12.73v1.82h0.99v-2.76h-1.14l0.15-6.3h-3.89v0.94h2.86l-0.03,1.15h-2.84v0.96h2.81l-0.03,1.09h-3.07v0.94
			h3.04l-0.03,1.23h-3.58l0.64-0.7l-0.1-0.09c-0.41-0.37-0.78-0.71-1.17-1.04c0.36-0.35,0.69-0.74,0.98-1.16l0.06-0.08l-0.37-0.42
			l0.6-0.66l-0.16-0.15c-0.32-0.29-0.65-0.59-1-0.87c0.39-0.38,0.75-0.79,1.14-1.31l0.06-0.09l-0.6-0.67l-0.1,0.13
			c-0.35,0.5-0.75,0.94-1.22,1.37c-0.48-0.36-1.02-0.72-1.64-1.1l-0.1-0.06l-0.57,0.67l0.13,0.08c0.56,0.36,1.03,0.69,1.46,1
			c-0.52,0.39-1.09,0.72-1.72,1l-0.14,0.06l0.48,0.78l0.1-0.05c0.69-0.31,1.34-0.71,1.99-1.21c0.35,0.31,0.69,0.64,0.98,0.92
			l-0.02,0.03c-0.31,0.44-0.66,0.84-1.06,1.22c-0.46-0.33-0.94-0.65-1.46-1l-0.1-0.06l-0.57,0.69l0.13,0.08
			c0.4,0.25,0.81,0.53,1.27,0.88c-0.5,0.37-1.05,0.7-1.68,0.99l-0.14,0.06l0.48,0.74h-3.52l-0.01-1.3h3.04v-0.93h-3.07l-0.01-1.02
			h2.96v-0.96h-2.96l-0.01-0.7c1.07-0.2,2.12-0.55,3.18-1.06l0.13-0.06l-0.55-0.89l-0.1,0.04c-1.25,0.54-2.41,0.89-3.55,1.06
			l-0.11,0.02l0.14,5.8h-1.14v2.76h1.01V23.81z M233.61,22.84c0.7-0.32,1.36-0.71,1.95-1.18c0.48,0.42,0.85,0.78,1.21,1.15
			l0.06,0.07h-3.3L233.61,22.84z"/>
		<path d="M243.17,27.67h-7.52c0-0.01-0.01-0.02-0.01-0.04c-0.01-0.03-0.03-0.07-0.04-0.11c1.77-0.54,3.31-1.21,4.6-1.99l0.06-0.04
			v-0.81h-9.94v0.94h7.88c-0.84,0.37-1.8,0.7-2.86,0.99l0,0c-0.04,0.01-0.14,0.03-0.25,0.06l-0.01,0c-0.01,0-0.01,0-0.02,0.01
			c-0.12,0.03-0.3,0.08-0.47,0.12c-0.07,0.02-0.15,0.04-0.22,0.05l-0.16,0.04l0.08,0.15c0.1,0.19,0.18,0.38,0.26,0.62h-7.21v0.94
			h7.47c0.09,0.4,0.17,0.77,0.19,1.27c0.02,0.44-0.02,0.64-0.15,0.73c-0.08,0.06-0.16,0.09-0.34,0.09c-0.52,0-1.1-0.13-1.79-0.41
			l-0.2-0.08l0.1,1.11l0.08,0.03c0.73,0.24,1.39,0.35,2,0.35c0.4,0,0.72-0.1,0.95-0.29c0.29-0.25,0.41-0.71,0.41-1.54
			c0-0.42-0.06-0.79-0.16-1.26h7.26V27.67z"/>
		<path d="M170.61,26.43l-0.17-1.02l-0.16,0.09c-0.48,0.26-0.82,0.42-1.46,0.67v-4.6h1.77v-0.93h-1.77v-4.4h-1.01v4.4h-2.04v0.93
			h2.04v5c-0.72,0.28-1.39,0.53-2.2,0.76l-0.16,0.04l0.53,0.98l0.1-0.03c1.5-0.49,2.95-1.09,4.44-1.85L170.61,26.43z"/>
		<path d="M180.72,28.16c-0.1,1.15-0.21,1.99-0.32,2.3c-0.07,0.22-0.19,0.22-0.22,0.22c-0.19,0-0.57-0.36-1.04-1.36
			c-0.25-0.54-0.48-1.14-0.67-1.81c0,0,0,0,0-0.01l0.01-0.01c0.86-1.21,1.56-3.19,2.1-5.89l0.03-0.13l-1.06-0.2l-0.03,0.13
			c-0.38,1.93-0.86,3.49-1.44,4.66c-0.13-0.54-0.25-1.15-0.35-1.76c-0.21-1.36-0.36-2.83-0.42-4.35h4.08v-0.94h-4.13
			c-0.04-0.95-0.07-1.98-0.07-3.13v-0.13h-1.07v0.13c0,1.26,0.02,2.23,0.06,3.13h-5v4.91c0,1.78-0.23,3.16-0.7,4.23
			c-0.45,1.05-1.1,1.92-1.97,2.66l-0.1,0.08l0.65,0.81l0.1-0.09c0.95-0.79,1.67-1.72,2.2-2.86c0.55-1.18,0.83-2.74,0.83-4.73v-0.77
			h2.5c-0.07,2.01-0.2,3.43-0.37,4.02c-0.17,0.53-0.43,0.53-0.51,0.53c-0.28,0-0.66-0.03-1.4-0.29l-0.17-0.06v1.09l0.09,0.03
			c0.71,0.21,1.2,0.31,1.62,0.31c0.53,0,0.94-0.34,1.2-1c0.27-0.72,0.46-2.54,0.56-5.43l0.01-0.14h-3.52v-2.37h4.04
			c0.11,1.8,0.3,3.45,0.57,4.9c0.15,0.82,0.35,1.68,0.56,2.41c-0.84,1.2-1.97,2.31-3.42,3.31l-0.12,0.08l0.62,0.76l0.1-0.06
			c1.28-0.83,2.32-1.78,3.2-2.86c0.2,0.57,0.44,1.11,0.71,1.61c0.54,0.99,1.1,1.51,1.71,1.59c0.37,0.05,0.74-0.13,0.94-0.46
			c0.25-0.41,0.43-1.2,0.57-2.49l0.01-0.07l-0.94-0.76L180.72,28.16z"/>
		<path d="M179.53,18.73l0.06,0.14l0.9-0.62l-0.05-0.1c-0.41-0.81-0.85-1.45-1.45-2.14l-0.08-0.09l-0.82,0.56l0.09,0.11
			C178.82,17.38,179.21,17.99,179.53,18.73z"/>
	</g>
	<g>
		<g>
			<path class="st0" d="M110.68,0.21L20.83,23.58c-0.13,0.03-0.38,0.12-0.53,0.22c-0.16,0.1-0.29,0.24-0.43,0.42L0.36,49.99
				c-0.07,0.1-0.07,0.19-0.07,0.27c0,0.15,0.12,0.29,0.24,0.32l19.53,4.25l1.15,0.4l3.64,0.79l2.5,0.35l24.52,5.29l2.21,0.67
				l2.82,0.61l1.93,0.25l38.32,8.28L110.68,0.21z"/>
			<path d="M113.45,9.27L110.88,0L20.79,23.43c-0.15,0.04-0.41,0.13-0.58,0.25c-0.19,0.13-0.34,0.29-0.47,0.46L0.11,50.05
				c-0.22,0.29-0.11,0.6,0.25,0.67l20.84,4.5c-1.82-0.68-3.19-1.67-3.89-2.5c-1.86-2.2-2.67-5.24-2.22-8.47
				c1.14-8.21,7.03-11.89,12.48-11.89c2.6,0,5.07,0.43,7.01,1.49l-0.32,3.65h-2.69l0.12-1.41c-0.98-0.61-4.49-1.17-7.38,0.01
				c-3.39,1.56-4.85,5.59-5.04,8.3c-0.13,1.93,0.14,4.46,1.49,6.28c1.36,1.84,5.17,3.24,9.65,1.74c1.99-0.7,2.88,1.36,2.88,1.36
				l-0.21,0.12c-2.96,1.76-5.8,2.26-8.25,2.1l29.22,6.31l4.08-7.45L53.6,40.65H51.7l0.22-2.57h4.85l3.9,12.17l5.39-9.86
				c0,0,0.92-2.32,3.87-2.32h0.99l-13.6,24.18c-0.14,0.25-0.28,0.47-0.43,0.66l40.38,8.71l0.26,0.06c0.15,0.03,0.35-0.25,0.44-0.6
				l15.5-60.53c0.04-0.17,0.09-0.38,0.09-0.6C113.56,9.72,113.5,9.46,113.45,9.27z M39.33,56.07c0,0-3.84,0.19-3.5-3.71l1.02-11.7
				h-2.02l0.22-2.57h5.84L39.33,56.07z M39.17,36.8c-1.06,0-1.84-0.85-1.74-1.91c0.1-1.05,1.02-1.91,2.08-1.91
				c1.05,0,1.84,0.86,1.74,1.91C41.16,35.95,40.22,36.8,39.17,36.8z M47.1,52.87c0.3,0.47,0.76,0.7,1.44,0.7
				c2.21,0,2.13,2.12,2.13,2.12s-1.69,0.38-2.82,0.38c-1.83,0-3.16-0.5-3.96-1.48c-0.79-0.97-1.09-2.48-0.91-4.49l1.3-14.95
				l3.91-0.95l-0.34,3.88h2.94l-0.22,2.49h-2.94l-0.86,9.92C46.67,51.56,46.78,52.36,47.1,52.87z M89.73,45.86
				c-0.19,2.16-0.44,3.69-0.76,4.69c-0.33,1.01-0.93,2-1.75,2.93c-1.54,1.72-3.79,2.6-6.66,2.6c-2.94,0-5.07-0.78-6.33-2.3
				c-1.25-1.52-1.57-3.88-1.29-7.08l0.74-8.62h-2.38l0.22-2.53h6.22l-0.21,2.53l-0.68,7.71c-0.17,1.93-0.17,3.34-0.06,4.21
				c0.1,0.82,0.37,1.51,0.8,2.03c0.83,1.02,1.98,1.51,3.5,1.51c1.47,0,2.68-0.46,3.7-1.41c0.96-0.88,1.54-2.79,1.79-5.67l0.75-8.61
				c0,0,0.2-2.3,2.71-2.3h0.6L89.73,45.86z"/>
		</g>
	</g>
</g>
</svg>
