<?xml version="1.0" encoding="utf-8"?>
<!-- Generator: Adobe Illustrator 27.9.0, SVG Export Plug-In . SVG Version: 6.00 Build 0)  -->
<svg version="1.1" id="Chinese_Text_2" xmlns="http://www.w3.org/2000/svg" xmlns:xlink="http://www.w3.org/1999/xlink" x="0px"
	 y="0px" viewBox="0 0 380.3 72.6" style="enable-background:new 0 0 380.3 72.6;" xml:space="preserve">
<style type="text/css">
	.st0{fill:#FFFFFF;}
</style>
<g>
	<g>
		<path d="M135.4,53.4c-1,1.3-2.3,1.9-3.9,1.9c-3,0-5.2-2.4-5.2-5.7c0-3.2,2.3-5.7,5.2-5.7c1.4,0,2.6,0.6,3.4,1.6l0.1,0.2l1.8-1.3
			l-0.1-0.2c-1.1-1.5-3-2.3-5.1-2.3c-4.2,0-7.4,3.3-7.4,7.6s3.2,7.6,7.4,7.6c2.4,0,4.2-0.9,5.5-2.6l0.1-0.1l-1.6-1.3L135.4,53.4z"/>
		<path d="M175.1,51c0,1.9-0.6,4.2-3.5,4.2s-3.5-2.3-3.5-4.2v-8.7h-2.1v9c0,3.8,2,6,5.5,6s5.5-2.2,5.5-6v-9h-2.1V51z"/>
		<rect x="139.3" y="47.1" width="1.9" height="9.7"/>
		<path d="M140.2,42.3c-0.7,0-1.3,0.6-1.3,1.3c0,0.8,0.6,1.3,1.3,1.3s1.3-0.6,1.3-1.3C141.6,42.9,141,42.3,140.2,42.3z"/>
		<path d="M149.2,55c-0.4,0.2-0.8,0.3-1.3,0.3c-1.2,0-1.2-0.7-1.2-2v-4.5h2.8v-1.7h-2.8v-2.7h-1.9v2.7h-2v1.7h2v5
			c0,1.7,0.2,3.3,2.8,3.3c0.7,0,1.4-0.1,1.9-0.4l0.1,0l-0.1-1.8L149.2,55z"/>
		<path d="M155.6,54.2l-2.8-7.1h-2.2l4,9.6l-0.6,1.7c-0.3,0.9-0.7,1.4-1.6,1.4c-0.5,0-0.8,0-1-0.2l-0.2-0.1l-0.2,1.7l0.1,0.1
			c0.4,0.2,0.9,0.3,1.5,0.3c2.1,0,2.7-1.3,3.3-2.8l4.6-11.8h-2.1L155.6,54.2z"/>
		<path d="M184.2,46.9c-1.4,0-2.4,0.6-3,1.4c0-0.1,0-0.1,0-0.2c0-0.2,0-0.5,0-0.8v-0.2h-1.9v0.2c0,0.3,0,0.6,0,0.9
			c0,0.4,0,0.8,0,1.3v7.3h1.9v-4.8c0-1.6,0.5-3.4,2.7-3.4c1.6,0,1.9,1.3,1.9,2.3v5.8h1.9v-6C187.9,48.3,186.5,46.9,184.2,46.9z"/>
		<path d="M191,42.3c-0.7,0-1.3,0.6-1.3,1.3c0,0.8,0.6,1.3,1.3,1.3s1.3-0.6,1.3-1.3C192.3,42.9,191.7,42.3,191,42.3z"/>
		<rect x="190" y="47.1" width="1.9" height="9.7"/>
		<polygon points="198.9,54.2 196.1,47.1 193.8,47.1 197.8,56.9 199.8,56.9 203.6,47.1 201.6,47.1 		"/>
		<path d="M226.9,51c-1.1-0.2-2.2-0.5-2.2-1.2c0-0.7,0.9-1.1,1.6-1.1c1,0,1.5,0.6,1.8,1l0.1,0.2l1.6-1.1l-0.1-0.2
			c-0.6-1.2-1.8-1.8-3.4-1.8c-1.8,0-3.7,1-3.7,3c0,2.1,1.8,2.5,3.4,2.9c1.1,0.2,1.9,0.5,1.9,1.3c0,1-1.2,1.2-1.9,1.2
			c-0.9,0-1.6-0.3-2.2-1.2l-0.1-0.1l-1.5,1.2l0.1,0.2c0.9,1.3,2,1.8,3.8,1.8c1.8,0,3.9-0.8,3.9-3.1C230.1,51.9,228.5,51.3,226.9,51z
			"/>
		<path d="M209,46.9c-2.9,0-5,2.2-5,5.1c0,3,2,5.1,4.9,5.1c1.9,0,3.2-0.6,4.3-2l0.1-0.2l-1.5-1.2l-0.1,0.2c-0.7,0.9-1.6,1.3-2.8,1.3
			c-1.4,0-2.6-1.1-2.9-2.6h7.5V52C213.6,48.9,211.8,46.9,209,46.9z M206.1,51c0.3-1.4,1.3-2.3,2.8-2.3c1.5,0,2.5,0.9,2.6,2.3H206.1z
			"/>
		<path d="M220.5,46.9c-1.4,0-2.4,0.6-3,1.4c0-0.1,0-0.1,0-0.2c0-0.2,0-0.5,0-0.8v-0.2h-1.9v0.2c0,0.3,0,0.6,0,0.9
			c0,0.4,0,0.8,0,1.3v7.3h1.9v-4.8c0-2.2,0.9-3.3,2.6-3.3c0.3,0,0.6,0,0.8,0.1l0.2,0.1l0.1-2l-0.1,0
			C220.9,46.9,220.7,46.9,220.5,46.9z"/>
		<rect x="231.8" y="47.1" width="1.9" height="9.7"/>
		<path d="M232.8,42.3c-0.7,0-1.3,0.6-1.3,1.3c0,0.8,0.6,1.3,1.3,1.3s1.3-0.6,1.3-1.3C234.1,42.9,233.5,42.3,232.8,42.3z"/>
		<path d="M241.9,55c-0.4,0.2-0.8,0.3-1.3,0.3c-1.2,0-1.2-0.7-1.2-2v-4.5h2.8v-1.7h-2.8v-2.7h-1.9v2.7h-2v1.7h2v5
			c0,1.7,0.2,3.3,2.8,3.3c0.7,0,1.4-0.1,1.9-0.4l0.1,0l-0.1-1.8L241.9,55z"/>
		<path d="M248.5,54.2l-2.8-7.1h-2.2l4,9.6l-0.6,1.7c-0.3,0.9-0.7,1.4-1.6,1.4c-0.5,0-0.8,0-1-0.2l-0.2-0.1l-0.2,1.7l0.1,0.1
			c0.4,0.2,0.9,0.3,1.5,0.3c2.1,0,2.7-1.3,3.3-2.8l4.6-11.8h-2.1L248.5,54.2z"/>
		<path d="M263,46.9c-3,0-5.2,2.2-5.2,5.1c0,3,2.1,5.1,5.2,5.1c3,0,5.2-2.2,5.2-5.1S266,46.9,263,46.9z M266.1,52
			c0,1.9-1.3,3.3-3.1,3.3s-3.1-1.3-3.1-3.3c0-1.9,1.3-3.3,3.1-3.3S266.1,50,266.1,52z"/>
		<path d="M274.3,41.1c-2.4,0-3.5,1.3-3.5,4.1v1.9h-2v1.7h2v8h1.9v-8h2.3v-1.7h-2.3v-1.6c0-1.8,0.1-2.6,1.5-2.6c0.3,0,0.6,0.1,1,0.2
			l0.2,0.1l0.3-1.8l-0.1-0.1C275.3,41.2,274.7,41.1,274.3,41.1z"/>
		<polygon points="291.5,48.3 284.3,48.3 284.3,42.3 282.3,42.3 282.3,56.9 284.3,56.9 284.3,50.3 291.5,50.3 291.5,56.9 
			293.6,56.9 293.6,42.3 291.5,42.3 		"/>
		<path d="M300.7,46.9c-3,0-5.2,2.2-5.2,5.1s2.2,5.1,5.2,5.1c3,0,5.2-2.1,5.2-5.1C305.9,49,303.7,46.9,300.7,46.9z M303.8,52
			c0,1.9-1.3,3.3-3.1,3.3c-1.9,0-3.1-1.3-3.1-3.3c0-1.9,1.3-3.3,3.1-3.3S303.8,50,303.8,52z"/>
		<path d="M312.3,46.9c-1.4,0-2.4,0.6-3,1.4c0-0.1,0-0.1,0-0.2c0-0.2,0-0.5,0-0.8v-0.2h-1.9v0.2c0,0.3,0,0.6,0,0.9
			c0,0.4,0,0.8,0,1.3v7.3h1.9v-4.8c0-1.6,0.5-3.4,2.7-3.4c1.6,0,2,1.3,2,2.3v5.8h1.9v-6C316,48.3,314.6,46.9,312.3,46.9z"/>
		<path d="M326.2,48.3c-0.8-1-2.1-1.4-3.1-1.4c-3.1,0-5.2,2-5.2,5.1c0,2.9,2.2,5,5.2,5c1.3,0,2.4-0.5,3.1-1.4v0.7
			c0,2.4-1.1,3.6-3.4,3.6c-1.3,0-2.4-0.5-3.3-1.6l-0.1-0.2l-1.4,1.6l0.1,0.1c1.3,1.3,2.8,1.8,4.7,1.8c3.4,0,5.3-1.9,5.3-5.4v-9.1
			h-1.9V48.3z M326.2,51.9c0,1.5-1,3.2-3.1,3.2c-1.7,0-3.1-1.4-3.1-3.2c0-1.9,1.3-3.3,3.1-3.3C324.9,48.7,326.2,50,326.2,51.9z"/>
		<path d="M352.5,46.9c-3,0-5.2,2.2-5.2,5.1s2.2,5.1,5.2,5.1s5.2-2.2,5.2-5.1S355.5,46.9,352.5,46.9z M355.6,52
			c0,1.9-1.3,3.3-3.1,3.3c-1.9,0-3.1-1.3-3.1-3.3c0-1.9,1.3-3.3,3.1-3.3C354.3,48.7,355.6,50,355.6,52z"/>
		<path d="M364.4,46.9c-1.4,0-2.4,0.6-3,1.4c0-0.1,0-0.1,0-0.2c0-0.2,0-0.5,0-0.8v-0.2h-1.9v0.2c0,0.3,0,0.6,0,0.9
			c0,0.4,0,0.8,0,1.3v7.3h1.9v-4.8c0-1.6,0.5-3.4,2.7-3.4c1.6,0,2,1.3,2,2.3v5.8h1.9v-6C368.2,48.3,366.8,46.9,364.4,46.9z"/>
		<path d="M378.3,47.1v1.2c-0.8-1-2.1-1.4-3.1-1.4c-3.1,0-5.2,2-5.2,5.1c0,2.9,2.2,5,5.2,5c1.3,0,2.4-0.5,3.1-1.4v0.7
			c0,2.4-1.1,3.6-3.4,3.6c-1.3,0-2.4-0.5-3.3-1.6l-0.1-0.2l-1.4,1.6l0.1,0.1c1.3,1.3,2.8,1.8,4.7,1.8c3.4,0,5.3-1.9,5.3-5.4v-9.1
			H378.3z M378.3,51.9c0,1.5-1,3.2-3.1,3.2c-1.7,0-3.1-1.4-3.1-3.2c0-1.9,1.3-3.3,3.1-3.3C377,48.7,378.3,50,378.3,51.9z"/>
		<polygon points="347.2,42.3 344.2,42.3 337.8,48.4 337.8,42.3 335.7,42.3 335.7,56.9 337.8,56.9 337.8,49.7 344.5,56.9 
			347.5,56.9 340,49 		"/>
	</g>
	<g>
		<path d="M133.4,20.6h6v-0.9h-7.1v-1.7c1.9-0.2,3.8-0.4,5.4-0.8l0.2,0l-0.5-1l-0.1,0c-3.9,0.8-7.8,1.2-11.7,1.2h-0.2l0.3,1h0.1
			c1.9,0,3.8-0.1,5.5-0.3v1.6h-7.1v0.9h6c-0.6,0.7-1.5,1.4-2.5,2c-1.3,0.8-2.6,1.5-3.8,1.9l-0.1,0l0.4,0.9l0.1,0
			c1.3-0.5,2.7-1.2,4.2-2.2c1.1-0.8,2.1-1.6,2.8-2.5v3.8H127v7.2h9.6v-7.2h-4.3v-3.8c1.5,1.7,3.8,3.2,6.8,4.6l0.1,0l0.8-0.9
			l-0.2-0.1C136.9,23.2,134.8,21.9,133.4,20.6z M135.6,28.5v2.3H128v-2.3H135.6z M128,27.6v-2.1h7.6v2.1H128z"/>
		<path d="M218.4,27.2c-1.1-1.5-1.9-3.1-2.3-5.1h6.2V21h-7.6c0.2-1.3,0.3-2.8,0.5-4.6l0-0.1h-1.1l0,0.1c-0.1,1.7-0.3,3.3-0.5,4.7
			h-6.4V22h6.2c-0.4,2-0.9,3.5-1.6,4.6c-1.1,1.8-2.8,3.3-5.2,4.6l-0.1,0.1l0.8,0.8l0.1,0c2.6-1.4,4.4-3,5.5-5c0.7-1.2,1.2-2.8,1.6-5
			h0.4c0.4,2.1,1.2,3.9,2.5,5.7c1.1,1.7,2.6,3.1,4.5,4.4l0.1,0.1l0.7-1l-0.1-0.1C220.8,30,219.5,28.7,218.4,27.2z"/>
		<path d="M195.7,18L195.7,18c-0.7-0.8-1.4-1.4-2.1-1.8l-0.1-0.1l-0.6,0.8l0.1,0.1c0.8,0.5,1.4,1.1,1.9,1.7h-8.6v1h7.6v2.9h-5.7v8
			h1.1v-7h4.5v8.5h1.1v-8.5h4.8v5.2c0,0.6-0.2,0.6-0.3,0.6c-0.7,0-1.5-0.2-2.4-0.5l-0.2-0.1l0.1,1.1l0.1,0c0.9,0.3,1.7,0.5,2.4,0.5
			c1,0,1.5-0.5,1.5-1.5v-6.4H195v-2.9h7.6v-1h-7.4L195.7,18z"/>
		<path d="M148,20l0.1,0.1l0.6-0.8l-0.1-0.1c-0.8-0.8-1.7-1.5-2.7-2.1l-0.1-0.1l-0.6,0.8l0.1,0.1C146.3,18.4,147.1,19.1,148,20z"/>
		<path d="M156.8,22.9h3.6V22h-3.9v-2.2h3v-0.9h-3v-2.6h-1v2.6h-2.9v-2.6h-1v2.6h-2.5v0.9h2.5V22h-3.5v0.9h3.4
			c-0.2,0.5-0.6,1.1-1,1.7c-0.6,0.8-1.4,1.5-2.3,2.1l-0.1,0.1l0.7,0.7l0.1-0.1c0.8-0.6,1.6-1.3,2.2-2.1v4.7c0,0.6,0.1,1.1,0.5,1.3
			c0.4,0.3,1.6,0.4,5,0.4c1.6,0,2.2-0.2,2.5-0.7c0.1-0.3,0.2-1,0.3-2.3v-0.1l-1.1-0.5l0,0.4c0,0.8-0.1,1.6-0.2,1.8
			c-0.1,0.4-0.6,0.4-1.5,0.4c-2.6,0-3.9,0-4.3-0.2c-0.2-0.1-0.3-0.3-0.3-0.5v-1.8h5v-3.4c0.8,0.8,1.7,1.5,2.7,2.2l0.1,0.1l0.8-0.9
			l-0.1-0.1C159,25.1,157.7,24,156.8,22.9z M152.2,27.3v-1.8h4v1.8H152.2z M155.6,19.7V22h-2.9v-2.2H155.6z M151.8,24.5
			c0.4-0.5,0.7-1.1,0.9-1.6h3c0.4,0.6,0.8,1.1,1.2,1.6H151.8z"/>
		<path d="M148.3,25.4l-0.8-0.6l-0.1,0.2c-0.7,2.3-1.6,4.4-2.8,6.4l-0.1,0.1l0.9,0.6l0.1-0.1C146.8,29.8,147.7,27.6,148.3,25.4
			L148.3,25.4z"/>
		<path d="M147.2,23.9l0.1,0.1l0.6-0.8l-0.1-0.1c-0.8-0.9-1.7-1.6-2.7-2.3l-0.1-0.1l-0.6,0.7l0.1,0.1
			C145.6,22.3,146.4,23,147.2,23.9z"/>
		<path d="M228.9,24.3h12.7v1.8h1v-2.8h-1.1l0.1-6.3h-3.9V18h2.9l0,1.1h-2.8v1h2.8l0,1.1h-3.1v0.9h3l0,1.2h-3.6l0.6-0.7l-0.1-0.1
			c-0.4-0.4-0.8-0.7-1.2-1c0.4-0.4,0.7-0.7,1-1.2l0.1-0.1l-0.4-0.4l0.6-0.7l-0.2-0.1c-0.3-0.3-0.6-0.6-1-0.9
			c0.4-0.4,0.8-0.8,1.1-1.3l0.1-0.1l-0.6-0.7l-0.1,0.1c-0.4,0.5-0.8,0.9-1.2,1.4c-0.5-0.4-1-0.7-1.6-1.1l-0.1-0.1l-0.6,0.7l0.1,0.1
			c0.6,0.4,1,0.7,1.5,1c-0.5,0.4-1.1,0.7-1.7,1l-0.1,0.1l0.5,0.8l0.1,0c0.7-0.3,1.3-0.7,2-1.2c0.4,0.3,0.7,0.6,1,0.9l0,0
			c-0.3,0.4-0.7,0.8-1.1,1.2c-0.5-0.3-0.9-0.6-1.5-1l-0.1-0.1l-0.6,0.7l0.1,0.1c0.4,0.2,0.8,0.5,1.3,0.9c-0.5,0.4-1.1,0.7-1.7,1
			l-0.1,0.1l0.5,0.7h-3.5l0-1.3h3v-0.9h-3.1l0-1h3v-1h-3l0-0.7c1.1-0.2,2.1-0.5,3.2-1.1l0.1-0.1l-0.6-0.9l-0.1,0
			c-1.2,0.5-2.4,0.9-3.6,1.1l-0.1,0l0.1,5.8h-1.1v2.8h1L228.9,24.3L228.9,24.3z M233.6,23.3c0.7-0.3,1.4-0.7,1.9-1.2
			c0.5,0.4,0.9,0.8,1.2,1.1l0.1,0.1L233.6,23.3L233.6,23.3z"/>
		<path d="M243.2,28.1h-7.5c0,0,0,0,0,0c0,0,0-0.1,0-0.1c1.8-0.5,3.3-1.2,4.6-2l0.1,0v-0.8h-9.9v0.9h7.9c-0.8,0.4-1.8,0.7-2.9,1l0,0
			c0,0-0.1,0-0.2,0.1h0c0,0,0,0,0,0c-0.1,0-0.3,0.1-0.5,0.1c-0.1,0-0.1,0-0.2,0l-0.2,0l0.1,0.1c0.1,0.2,0.2,0.4,0.3,0.6h-7.2V29h7.5
			c0.1,0.4,0.2,0.8,0.2,1.3c0,0.4,0,0.6-0.1,0.7c-0.1,0.1-0.2,0.1-0.3,0.1c-0.5,0-1.1-0.1-1.8-0.4l-0.2-0.1l0.1,1.1l0.1,0
			c0.7,0.2,1.4,0.4,2,0.4c0.4,0,0.7-0.1,0.9-0.3c0.3-0.2,0.4-0.7,0.4-1.5c0-0.4-0.1-0.8-0.2-1.3h7.3L243.2,28.1L243.2,28.1z"/>
		<path d="M170.6,26.9l-0.2-1l-0.2,0.1c-0.5,0.3-0.8,0.4-1.5,0.7V22h1.8v-0.9h-1.8v-4.4h-1v4.4h-2V22h2v5c-0.7,0.3-1.4,0.5-2.2,0.8
			l-0.2,0l0.5,1l0.1,0C167.6,28.3,169,27.7,170.6,26.9L170.6,26.9z"/>
		<path d="M180.7,28.6c-0.1,1.1-0.2,2-0.3,2.3c-0.1,0.2-0.2,0.2-0.2,0.2c-0.2,0-0.6-0.4-1-1.4c-0.2-0.5-0.5-1.1-0.7-1.8c0,0,0,0,0,0
			l0,0c0.9-1.2,1.6-3.2,2.1-5.9l0-0.1l-1.1-0.2l0,0.1c-0.4,1.9-0.9,3.5-1.4,4.7c-0.1-0.5-0.2-1.1-0.4-1.8c-0.2-1.4-0.4-2.8-0.4-4.4
			h4.1v-0.9h-4.1c0-1-0.1-2-0.1-3.1v-0.1h-1.1v0.1c0,1.3,0,2.2,0.1,3.1h-5v4.9c0,1.8-0.2,3.2-0.7,4.2c-0.4,1-1.1,1.9-2,2.7l-0.1,0.1
			l0.6,0.8l0.1-0.1c0.9-0.8,1.7-1.7,2.2-2.9c0.6-1.2,0.8-2.7,0.8-4.7v-0.8h2.5c-0.1,2-0.2,3.4-0.4,4c-0.2,0.5-0.4,0.5-0.5,0.5
			c-0.3,0-0.7,0-1.4-0.3l-0.2-0.1V29l0.1,0c0.7,0.2,1.2,0.3,1.6,0.3c0.5,0,0.9-0.3,1.2-1c0.3-0.7,0.5-2.5,0.6-5.4l0-0.1h-3.5v-2.4h4
			c0.1,1.8,0.3,3.5,0.6,4.9c0.1,0.8,0.4,1.7,0.6,2.4c-0.8,1.2-2,2.3-3.4,3.3l-0.1,0.1l0.6,0.8l0.1-0.1c1.3-0.8,2.3-1.8,3.2-2.9
			c0.2,0.6,0.4,1.1,0.7,1.6c0.5,1,1.1,1.5,1.7,1.6c0.4,0,0.7-0.1,0.9-0.5c0.2-0.4,0.4-1.2,0.6-2.5l0-0.1l-0.9-0.8L180.7,28.6z"/>
		<path d="M179.5,19.2l0.1,0.1l0.9-0.6l-0.1-0.1c-0.4-0.8-0.9-1.5-1.4-2.1l-0.1-0.1l-0.8,0.6l0.1,0.1
			C178.8,17.8,179.2,18.4,179.5,19.2z"/>
	</g>
	<g>
		<g>
			<path class="st0" d="M110.7,0.7L20.8,24c-0.1,0-0.4,0.1-0.5,0.2c-0.2,0.1-0.3,0.2-0.4,0.4L0.4,50.4c-0.1,0.1-0.1,0.2-0.1,0.3
				c0,0.2,0.1,0.3,0.2,0.3l19.5,4.2l1.1,0.4l3.6,0.8l2.5,0.3l24.5,5.3l2.2,0.7l2.8,0.6l1.9,0.2l38.3,8.3L110.7,0.7z"/>
			<path d="M113.5,9.7l-2.6-9.3L20.8,23.9c-0.1,0-0.4,0.1-0.6,0.2c-0.2,0.1-0.3,0.3-0.5,0.5L0.1,50.5c-0.2,0.3-0.1,0.6,0.2,0.7
				l20.8,4.5C19.4,55,18,54,17.3,53.2c-1.9-2.2-2.7-5.2-2.2-8.5c1.1-8.2,7-11.9,12.5-11.9c2.6,0,5.1,0.4,7,1.5l-0.3,3.7h-2.7
				l0.1-1.4c-1-0.6-4.5-1.2-7.4,0c-3.4,1.6-4.9,5.6-5,8.3c-0.1,1.9,0.1,4.5,1.5,6.3c1.4,1.8,5.2,3.2,9.6,1.7c2-0.7,2.9,1.4,2.9,1.4
				l-0.2,0.1c-3,1.8-5.8,2.3-8.2,2.1l29.2,6.3l4.1-7.5l-4.5-14.2h-1.9l0.2-2.6h4.8l3.9,12.2l5.4-9.9c0,0,0.9-2.3,3.9-2.3h1
				L57.3,62.7c-0.1,0.2-0.3,0.5-0.4,0.7l40.4,8.7l0.3,0.1c0.2,0,0.3-0.2,0.4-0.6L113.5,11c0-0.2,0.1-0.4,0.1-0.6
				C113.6,10.2,113.5,9.9,113.5,9.7z M39.3,56.5c0,0-3.8,0.2-3.5-3.7l1-11.7h-2l0.2-2.6h5.8L39.3,56.5z M39.2,37.2
				c-1.1,0-1.8-0.8-1.7-1.9c0.1-1,1-1.9,2.1-1.9c1,0,1.8,0.9,1.7,1.9C41.2,36.4,40.2,37.2,39.2,37.2z M47.1,53.3
				c0.3,0.5,0.8,0.7,1.4,0.7c2.2,0,2.1,2.1,2.1,2.1s-1.7,0.4-2.8,0.4c-1.8,0-3.2-0.5-4-1.5c-0.8-1-1.1-2.5-0.9-4.5l1.3-15l3.9-1
				l-0.3,3.9h2.9L50.6,41h-2.9l-0.9,9.9C46.7,52,46.8,52.8,47.1,53.3z M89.7,46.3C89.5,48.5,89.3,50,89,51c-0.3,1-0.9,2-1.8,2.9
				c-1.5,1.7-3.8,2.6-6.7,2.6c-2.9,0-5.1-0.8-6.3-2.3c-1.2-1.5-1.6-3.9-1.3-7.1l0.7-8.6h-2.4l0.2-2.5h6.2l-0.2,2.5l-0.7,7.7
				c-0.2,1.9-0.2,3.3-0.1,4.2c0.1,0.8,0.4,1.5,0.8,2c0.8,1,2,1.5,3.5,1.5c1.5,0,2.7-0.5,3.7-1.4c1-0.9,1.5-2.8,1.8-5.7l0.8-8.6
				c0,0,0.2-2.3,2.7-2.3h0.6L89.7,46.3z"/>
		</g>
	</g>
</g>
</svg>
