<?xml version="1.0" encoding="utf-8"?>
<!-- Generator: Adobe Illustrator 27.9.0, SVG Export Plug-In . SVG Version: 6.00 Build 0)  -->
<svg version="1.1" id="Chinese_Text_2" xmlns="http://www.w3.org/2000/svg" xmlns:xlink="http://www.w3.org/1999/xlink" x="0px"
	 y="0px" viewBox="0 0 234.3 149.2" style="enable-background:new 0 0 234.3 149.2;" xml:space="preserve">
<style type="text/css">
	.st0{fill:#FFFFFF;}
</style>
<g>
	<g>
		<path d="M7.8,136.8c-0.6-0.8-1.6-1.2-2.5-1.2c-2.2,0-3.8,2-3.8,4.2c0,2.3,1.6,4.2,3.8,4.2c1.2,0,2.2-0.5,2.9-1.4l0.9,0.8
			c-0.9,1.2-2.2,1.8-3.8,1.8c-2.9,0-5.1-2.2-5.1-5.3c0-3,2.1-5.3,5.1-5.3c1.4,0,2.7,0.5,3.6,1.6L7.8,136.8z"/>
		<path d="M35.9,140.9c0,2.2-1,4.1-3.8,4.1s-3.8-1.9-3.8-4.1v-6.2h1.2v6.1c0,1.6,0.6,3.2,2.6,3.2s2.6-1.5,2.6-3.2v-6.1h1.2V140.9z"
			/>
		<path d="M11,134.7c0.5,0,0.8,0.4,0.8,0.8c0,0.5-0.3,0.8-0.8,0.8s-0.8-0.3-0.8-0.8C10.2,135.1,10.6,134.7,11,134.7 M10.5,138.1h1.1
			v6.7h-1.1V138.1z"/>
		<path d="M17.1,139h-2v3.3c0,0.9,0,1.5,1,1.5c0.3,0,0.7-0.1,1-0.2l0,1c-0.4,0.2-0.9,0.2-1.3,0.2c-1.6,0-1.8-0.9-1.8-2.2V139h-1.5
			v-0.9h1.5v-1.9h1.1v1.9h2L17.1,139L17.1,139z"/>
		<path d="M21.5,146.3c-0.4,1.1-0.9,1.9-2.2,1.9c-0.3,0-0.7,0-1-0.2l0.1-1c0.2,0.1,0.5,0.1,0.8,0.1c0.7,0,1-0.4,1.2-1.1l0.5-1.2
			l-2.8-6.7h1.3l2.1,5.2h0l2-5.2h1.2L21.5,146.3z"/>
		<path d="M37.4,139.7c0-0.6-0.1-1.1-0.1-1.6h1.1c0,0.4,0,0.7,0,1.1h0c0.3-0.6,1.1-1.3,2.2-1.3c1.8,0,2.5,1.1,2.5,2.7v4.1h-1.1v-4
			c0-1.1-0.5-1.8-1.5-1.8c-1.4,0-2.1,1.1-2.1,2.6v3.2h-1.1V139.7z"/>
		<path d="M45.3,134.7c0.4,0,0.8,0.4,0.8,0.8c0,0.5-0.3,0.8-0.8,0.8s-0.8-0.3-0.8-0.8C44.5,135.1,44.8,134.7,45.3,134.7 M44.7,138.1
			h1.1v6.7h-1.1V138.1z"/>
		<polygon points="51.2,144.8 50,144.8 47.2,138.1 48.5,138.1 50.6,143.3 50.6,143.3 52.6,138.1 53.8,138.1 		"/>
		<path d="M67.3,143c0.4,0.5,0.9,0.9,1.7,0.9c0.7,0,1.5-0.3,1.5-1c0-0.7-0.7-0.9-1.4-1.1c-1.3-0.3-2.4-0.6-2.4-1.9
			c0-1.3,1.3-2,2.5-2c0.9,0,1.8,0.4,2.3,1.2l-0.9,0.6c-0.3-0.5-0.8-0.8-1.4-0.8c-0.6,0-1.3,0.3-1.3,0.9c0,0.6,0.8,0.8,1.7,1
			c1.2,0.2,2.2,0.6,2.2,2c0,1.5-1.3,2.1-2.7,2.1c-1.1,0-1.9-0.3-2.6-1.2L67.3,143z"/>
		<path d="M60.5,143.6c-0.8,1-1.7,1.4-3,1.4c-2.1,0-3.4-1.6-3.4-3.5c0-2.1,1.5-3.5,3.4-3.5c1.9,0,3.2,1.3,3.2,3.5v0.4h-5.4
			c0.1,1.2,1,2.1,2.2,2.1c0.9,0,1.6-0.3,2.1-1L60.5,143.6z M59.5,140.8c0-1.1-0.8-1.9-2-1.9c-1.2,0-2,0.8-2.2,1.9H59.5z"/>
		<path d="M62.1,139.7c0-0.6-0.1-1.1-0.1-1.6h1.1c0,0.4,0,0.7,0,1.1h0c0.3-0.6,1.1-1.3,2.2-1.3c0.1,0,0.3,0,0.5,0.1l-0.1,1.1
			c-0.2-0.1-0.4-0.1-0.6-0.1c-1.4,0-2,1-2,2.5v3.2h-1.1L62.1,139.7L62.1,139.7z"/>
		<path d="M73.5,134.7c0.5,0,0.8,0.4,0.8,0.8c0,0.5-0.3,0.8-0.8,0.8s-0.8-0.3-0.8-0.8C72.7,135.1,73,134.7,73.5,134.7 M72.9,138.1
			h1.1v6.7h-1.1V138.1z"/>
		<path d="M79.9,139h-2v3.3c0,0.9,0,1.5,1,1.5c0.3,0,0.7-0.1,1-0.2l0,1c-0.4,0.2-0.9,0.2-1.3,0.2c-1.6,0-1.8-0.9-1.8-2.2V139h-1.4
			v-0.9h1.4v-1.9h1.1v1.9h2L79.9,139L79.9,139z"/>
		<path d="M84.1,146.3c-0.4,1.1-0.9,1.9-2.2,1.9c-0.3,0-0.7,0-1-0.2l0.1-1c0.2,0.1,0.5,0.1,0.8,0.1c0.7,0,1-0.4,1.2-1.1l0.5-1.2
			l-2.8-6.7H82l2.1,5.2h0l2-5.2h1.2L84.1,146.3z"/>
		<path d="M93.9,137.9c2.1,0,3.6,1.4,3.6,3.5c0,2.1-1.5,3.5-3.6,3.5c-2.1,0-3.6-1.4-3.6-3.5C90.4,139.4,91.9,137.9,93.9,137.9
			 M93.9,143.9c1.4,0,2.4-1.1,2.4-2.5c0-1.4-0.9-2.5-2.4-2.5s-2.4,1.1-2.4,2.5C91.6,142.8,92.5,143.9,93.9,143.9"/>
		<path d="M99.4,139H98v-0.9h1.4v-1.5c0-1.6,0.6-2.8,2.4-2.8c0.3,0,0.6,0.1,0.9,0.2l-0.2,1c-0.2-0.1-0.5-0.1-0.8-0.1
			c-1.2,0-1.2,0.8-1.2,2v1.2h1.6v0.9h-1.6v5.7h-1.1L99.4,139L99.4,139z"/>
		<polygon points="106.7,134.7 107.9,134.7 107.9,139 113.3,139 113.3,134.7 114.5,134.7 114.5,144.8 113.3,144.8 113.3,140.1 
			107.9,140.1 107.9,144.8 106.7,144.8 		"/>
		<path d="M119.5,137.9c2.1,0,3.6,1.4,3.6,3.5c0,2.1-1.5,3.5-3.6,3.5c-2.1,0-3.6-1.4-3.6-3.5C115.9,139.4,117.4,137.9,119.5,137.9
			 M119.5,143.9c1.4,0,2.4-1.1,2.4-2.5c0-1.4-0.9-2.5-2.4-2.5s-2.4,1.1-2.4,2.5C117.1,142.8,118,143.9,119.5,143.9"/>
		<path d="M124.4,139.7c0-0.6-0.1-1.1-0.1-1.6h1.1c0,0.4,0,0.7,0,1.1h0c0.3-0.6,1.1-1.3,2.2-1.3c1.8,0,2.5,1.1,2.5,2.7v4.1h-1.1v-4
			c0-1.1-0.5-1.8-1.5-1.8c-1.4,0-2.1,1.1-2.1,2.6v3.2h-1.1L124.4,139.7L124.4,139.7z"/>
		<path d="M138.6,144.5c0,2.4-1.3,3.7-3.6,3.7c-1.3,0-2.3-0.3-3.3-1.3l0.8-0.9c0.7,0.8,1.5,1.2,2.5,1.2c2,0,2.5-1.3,2.5-2.7v-0.9h0
			c-0.5,0.9-1.5,1.2-2.4,1.2c-2.1,0-3.6-1.5-3.6-3.4c0-2.2,1.4-3.5,3.6-3.5c0.9,0,1.9,0.4,2.4,1.3h0v-1.1h1.1V144.5z M135.1,143.8
			c1.5,0,2.4-1.1,2.4-2.4c0-1.4-1-2.5-2.4-2.5c-1.4,0-2.4,1.1-2.4,2.5C132.8,142.8,133.8,143.8,135.1,143.8"/>
		<path d="M155,137.9c2.1,0,3.6,1.4,3.6,3.5c0,2.1-1.5,3.5-3.6,3.5c-2.1,0-3.6-1.4-3.6-3.5C151.4,139.4,153,137.9,155,137.9
			 M155,143.9c1.4,0,2.4-1.1,2.4-2.5c0-1.4-0.9-2.5-2.4-2.5s-2.4,1.1-2.4,2.5C152.6,142.8,153.6,143.9,155,143.9"/>
		<path d="M160,139.7c0-0.6-0.1-1.1-0.1-1.6h1.1c0,0.4,0,0.7,0,1.1h0c0.3-0.6,1.1-1.3,2.2-1.3c1.8,0,2.5,1.1,2.5,2.7v4.1h-1.1v-4
			c0-1.1-0.5-1.8-1.5-1.8c-1.4,0-2.1,1.1-2.1,2.6v3.2H160L160,139.7L160,139.7z"/>
		<path d="M174.1,144.5c0,2.4-1.3,3.7-3.6,3.7c-1.3,0-2.3-0.3-3.3-1.3l0.8-0.9c0.7,0.8,1.5,1.2,2.5,1.2c2,0,2.5-1.3,2.5-2.7v-0.9h0
			c-0.5,0.9-1.5,1.2-2.4,1.2c-2.1,0-3.6-1.5-3.6-3.4c0-2.2,1.4-3.5,3.6-3.5c0.9,0,1.9,0.4,2.4,1.3h0v-1.1h1.1V144.5z M170.6,143.8
			c1.5,0,2.4-1.1,2.4-2.4c0-1.4-1-2.5-2.4-2.5c-1.4,0-2.4,1.1-2.4,2.5C168.3,142.8,169.3,143.8,170.6,143.8"/>
		<polygon points="143.7,134.7 144.9,134.7 144.9,139 145.1,139 149.7,134.7 151.4,134.7 146.4,139.3 151.7,144.8 149.9,144.8 
			145.1,139.6 144.9,139.6 144.9,144.8 143.7,144.8 		"/>
	</g>
	<g>
		<path d="M9.8,116.5h6.1v-0.9H8.7v-1.8c2-0.2,3.8-0.4,5.5-0.8l0.2,0l-0.5-1l-0.1,0c-3.9,0.8-7.9,1.2-11.8,1.2H1.8l0.3,1h0.1
			c1.9-0.1,3.8-0.1,5.6-0.3v1.7H0.5v0.9h6c-0.6,0.7-1.5,1.4-2.5,2.1c-1.3,0.8-2.6,1.5-3.9,1.9L0,120.6l0.5,0.9l0.1,0
			c1.3-0.5,2.8-1.2,4.3-2.3c1.1-0.8,2.1-1.7,2.9-2.5v3.9H3.4v7.3h9.7v-7.3H8.7v-3.9c1.5,1.7,3.8,3.2,6.9,4.6l0.1,0l0.8-0.9l-0.2-0.1
			C13.4,119.2,11.3,117.9,9.8,116.5z M12.1,124.6v2.3H4.4v-2.3H12.1z M4.4,123.7v-2.1h7.7v2.1H4.4z"/>
		<path d="M95.8,123.2c-1.1-1.5-1.9-3.2-2.3-5.2h6.3V117h-7.6c0.2-1.3,0.3-2.9,0.5-4.7l0-0.1h-1.1l0,0.1c-0.1,1.7-0.3,3.3-0.5,4.7
			h-6.4v1.1h6.3c-0.4,2-0.9,3.6-1.6,4.6c-1.1,1.8-2.8,3.4-5.3,4.7l-0.1,0.1l0.8,0.8l0.1-0.1c2.6-1.4,4.5-3.1,5.6-5
			c0.7-1.2,1.2-2.8,1.6-5.1h0.4c0.4,2.1,1.2,4,2.5,5.7c1.2,1.7,2.6,3.2,4.6,4.4l0.1,0.1l0.7-1l-0.1-0.1
			C98.4,126.1,96.9,124.8,95.8,123.2z"/>
		<path d="M72.9,113.9L72.9,113.9c-0.7-0.8-1.4-1.4-2.2-1.9l-0.1-0.1l-0.6,0.8l0.1,0.1c0.8,0.6,1.4,1.1,1.9,1.7h-8.7v1h7.7v2.9h-5.8
			v8.1h1.1v-7.1H71v8.6h1.2v-8.6H77v5.2c0,0.6-0.2,0.6-0.4,0.6c-0.7,0-1.5-0.2-2.4-0.5l-0.2-0.1l0.1,1.1l0.1,0
			c0.9,0.3,1.7,0.5,2.4,0.5c1,0,1.5-0.5,1.5-1.5v-6.4h-6v-2.9h7.7v-1h-7.5L72.9,113.9z"/>
		<path d="M24.6,115.9l0.1,0.1l0.6-0.8l-0.1-0.1c-0.8-0.8-1.8-1.5-2.8-2.1l-0.1-0.1l-0.6,0.8l0.1,0.1
			C22.9,114.3,23.8,115.1,24.6,115.9z"/>
		<path d="M33.6,118.9h3.7V118h-3.9v-2.3h3v-0.9h-3v-2.6h-1v2.6h-2.9v-2.6h-1v2.6h-2.5v0.9h2.5v2.3h-3.6v0.9h3.4
			c-0.2,0.5-0.6,1.1-1.1,1.7c-0.6,0.8-1.4,1.5-2.3,2.2l-0.1,0.1l0.8,0.7l0.1-0.1c0.8-0.6,1.6-1.3,2.2-2.1v4.8c0,0.6,0.1,1.1,0.5,1.4
			c0.4,0.3,1.6,0.4,5.1,0.4c1.6,0,2.3-0.2,2.5-0.7c0.1-0.3,0.2-1.1,0.3-2.3v-0.1l-1.1-0.5l0,0.4c0,0.8-0.1,1.6-0.2,1.9
			c-0.2,0.4-0.6,0.4-1.5,0.4c-2.6,0-4,0-4.3-0.2c-0.2-0.1-0.3-0.3-0.3-0.5v-1.8h5.1v-3.4c0.8,0.8,1.7,1.5,2.7,2.2l0.1,0.1l0.8-0.9
			l-0.1-0.1C35.7,121.2,34.4,120.1,33.6,118.9z M28.9,123.4v-1.9h4v1.9H28.9z M32.3,115.7v2.3h-2.9v-2.3H32.3z M28.5,120.6
			c0.4-0.5,0.7-1.1,0.9-1.6h3c0.3,0.6,0.8,1.1,1.3,1.6H28.5z"/>
		<path d="M24.9,121.5l-0.8-0.6l-0.1,0.2c-0.7,2.3-1.7,4.5-2.9,6.4l-0.1,0.1l0.9,0.6l0.1-0.1C23.4,125.9,24.3,123.7,24.9,121.5
			L24.9,121.5z"/>
		<path d="M23.9,120l0.1,0.1l0.6-0.8l-0.1-0.1c-0.8-0.9-1.7-1.7-2.8-2.4l-0.1-0.1l-0.6,0.8l0.1,0.1C22.2,118.3,23,119.1,23.9,120z"
			/>
		<path d="M106.5,120.3h12.9v1.8h1v-2.8h-1.1l0.1-6.4h-3.9v0.9h2.9l0,1.2h-2.9v1h2.9l0,1.1h-3.1v0.9h3.1l0,1.2h-3.6l0.6-0.7
			l-0.1-0.1c-0.4-0.4-0.8-0.7-1.2-1.1c0.4-0.4,0.7-0.8,1-1.2l0.1-0.1l-0.4-0.4l0.6-0.7l-0.2-0.1c-0.3-0.3-0.7-0.6-1-0.9
			c0.4-0.4,0.8-0.8,1.1-1.3l0.1-0.1l-0.6-0.7l-0.1,0.1c-0.4,0.5-0.8,0.9-1.2,1.4c-0.5-0.4-1-0.7-1.7-1.1l-0.1-0.1L111,113l0.1,0.1
			c0.6,0.4,1.1,0.7,1.5,1c-0.5,0.4-1.1,0.7-1.7,1l-0.1,0.1l0.5,0.8l0.1-0.1c0.7-0.3,1.4-0.7,2-1.2c0.4,0.3,0.7,0.6,1,0.9l0,0
			c-0.3,0.4-0.7,0.9-1.1,1.2c-0.5-0.3-0.9-0.7-1.5-1l-0.1-0.1l-0.6,0.7l0.1,0.1c0.4,0.2,0.8,0.5,1.3,0.9c-0.5,0.4-1.1,0.7-1.7,1
			l-0.1,0.1l0.5,0.8h-3.6l0-1.3h3.1v-0.9h-3.1l0-1h3v-1h-3l0-0.7c1.1-0.2,2.1-0.6,3.2-1.1l0.1-0.1l-0.6-0.9l-0.1,0
			c-1.3,0.6-2.4,0.9-3.6,1.1l-0.1,0l0.1,5.9h-1.1v2.8h1L106.5,120.3L106.5,120.3z M111.3,119.3c0.7-0.3,1.4-0.7,2-1.2
			c0.5,0.4,0.9,0.8,1.2,1.2l0.1,0.1L111.3,119.3L111.3,119.3z"/>
		<path d="M121,124.2h-7.6c0,0,0,0,0,0c0,0,0-0.1,0-0.1c1.8-0.6,3.4-1.2,4.6-2l0.1,0v-0.8H108v0.9h8c-0.9,0.4-1.8,0.7-2.9,1l0,0
			c0,0-0.1,0-0.2,0.1h0c0,0,0,0,0,0c-0.1,0-0.3,0.1-0.5,0.1c-0.1,0-0.1,0-0.2,0.1l-0.2,0l0.1,0.1c0.1,0.2,0.2,0.4,0.3,0.6H105v0.9
			h7.6c0.1,0.4,0.2,0.8,0.2,1.3c0,0.4,0,0.6-0.1,0.7c-0.1,0.1-0.2,0.1-0.3,0.1c-0.5,0-1.1-0.1-1.8-0.4l-0.2-0.1l0.1,1.1l0.1,0
			c0.7,0.2,1.4,0.4,2,0.4c0.4,0,0.7-0.1,1-0.3c0.3-0.3,0.4-0.7,0.4-1.6c0-0.4-0.1-0.8-0.2-1.3h7.4L121,124.2L121,124.2z"/>
		<path d="M47.5,122.9l-0.2-1l-0.2,0.1c-0.5,0.3-0.8,0.4-1.5,0.7V118h1.8v-0.9h-1.8v-4.4h-1v4.4h-2.1v0.9h2.1v5.1
			c-0.7,0.3-1.4,0.5-2.2,0.8l-0.2,0l0.5,1l0.1,0C44.5,124.4,45.9,123.7,47.5,122.9L47.5,122.9z"/>
		<path d="M57.7,124.7c-0.1,1.2-0.2,2-0.3,2.3c-0.1,0.2-0.2,0.2-0.2,0.2c-0.2,0-0.6-0.4-1.1-1.4c-0.3-0.5-0.5-1.2-0.7-1.8
			c0,0,0,0,0,0l0,0c0.9-1.2,1.6-3.2,2.1-6l0-0.1l-1.1-0.2l0,0.1c-0.4,1.9-0.9,3.5-1.4,4.7c-0.1-0.6-0.2-1.2-0.3-1.8
			c-0.2-1.4-0.4-2.9-0.4-4.4h4.1v-0.9h-4.2c0-1-0.1-2-0.1-3.2v-0.1h-1.1v0.1c0,1.3,0,2.3,0.1,3.2h-5.1v5c0,1.8-0.2,3.2-0.7,4.3
			c-0.5,1.1-1.1,1.9-2,2.7l-0.1,0.1l0.7,0.8l0.1-0.1c1-0.8,1.7-1.7,2.2-2.9c0.6-1.2,0.8-2.8,0.8-4.8v-0.8h2.5
			c-0.1,2-0.2,3.5-0.4,4.1c-0.2,0.5-0.4,0.5-0.5,0.5c-0.3,0-0.7,0-1.4-0.3l-0.2-0.1v1.1l0.1,0c0.7,0.2,1.2,0.3,1.6,0.3
			c0.5,0,0.9-0.3,1.2-1c0.3-0.7,0.5-2.6,0.6-5.5v-0.1h-3.6v-2.4h4.1c0.1,1.8,0.3,3.5,0.6,5c0.2,0.8,0.3,1.7,0.6,2.4
			c-0.9,1.2-2,2.3-3.5,3.4l-0.1,0.1l0.6,0.8l0.1-0.1c1.3-0.8,2.3-1.8,3.2-2.9c0.2,0.6,0.4,1.1,0.7,1.6c0.6,1,1.1,1.5,1.7,1.6
			c0.4,0.1,0.8-0.1,0.9-0.5c0.3-0.4,0.4-1.2,0.6-2.5l0-0.1l-0.9-0.8V124.7z"/>
		<path d="M56.5,115.1l0.1,0.1l0.9-0.6l-0.1-0.1c-0.4-0.8-0.9-1.5-1.5-2.2l-0.1-0.1l-0.8,0.6l0.1,0.1
			C55.8,113.8,56.2,114.4,56.5,115.1z"/>
	</g>
	<g>
		<path class="st0" d="M229.5,0.8l-149,38.8c-0.2,0.1-0.6,0.2-0.9,0.4c-0.3,0.2-0.5,0.4-0.7,0.7L46.5,83.4c-0.1,0.2-0.1,0.3-0.1,0.4
			c0,0.2,0.2,0.5,0.4,0.5l32.4,7.1l1.9,0.7l6,1.3l4.1,0.6l40.7,8.8l3.7,1.1l4.7,1l3.2,0.4L207,119L229.5,0.8z"/>
		<path d="M234.1,15.9l-4.3-15.4L80.4,39.3c-0.2,0.1-0.7,0.2-1,0.4c-0.3,0.2-0.6,0.5-0.8,0.8l-32.6,43c-0.4,0.5-0.2,1,0.4,1.1
			l34.6,7.5c-3-1.1-5.3-2.8-6.4-4.1c-3.1-3.7-4.4-8.7-3.7-14.1c1.9-13.6,11.7-19.7,20.7-19.7c4.3,0,8.4,0.7,11.6,2.5l-0.5,6.1h-4.4
			l0.2-2.3c-1.6-1-7.4-1.9-12.2,0c-5.6,2.6-8.1,9.3-8.4,13.8c-0.2,3.2,0.2,7.4,2.5,10.4c2.2,3.1,8.6,5.4,16,2.9
			c3.3-1.2,4.8,2.3,4.8,2.3l-0.3,0.2c-4.9,2.9-9.6,3.8-13.7,3.5l48.5,10.5l6.8-12.4l-7.5-23.6h-3.1l0.4-4.3h8l6.5,20.2l8.9-16.3
			c0,0,1.5-3.8,6.4-3.8h1.6L141,103.8c-0.2,0.4-0.5,0.8-0.7,1.1l67,14.4l0.4,0.1c0.2,0.1,0.6-0.4,0.7-1L234.1,18
			c0.1-0.3,0.1-0.6,0.1-1C234.3,16.6,234.2,16.2,234.1,15.9z M111.2,93.5c0,0-6.4,0.3-5.8-6.2l1.7-19.4h-3.4l0.4-4.3h9.7L111.2,93.5
			z M110.9,61.5c-1.8,0-3.1-1.4-2.9-3.2s1.7-3.2,3.4-3.2s3.1,1.4,2.9,3.2C114.2,60.1,112.6,61.5,110.9,61.5z M124.1,88.2
			c0.5,0.8,1.3,1.2,2.4,1.2c3.7,0,3.5,3.5,3.5,3.5s-2.8,0.6-4.7,0.6c-3,0-5.2-0.8-6.6-2.5c-1.3-1.6-1.8-4.1-1.5-7.5l2.1-24.8
			l6.5-1.6l-0.6,6.4h4.9l-0.4,4.1h-4.9l-1.4,16.5C123.3,86,123.5,87.3,124.1,88.2z M194.8,76.6c-0.3,3.6-0.7,6.1-1.3,7.8
			c-0.6,1.7-1.5,3.3-2.9,4.9c-2.6,2.9-6.3,4.3-11.1,4.3c-4.9,0-8.4-1.3-10.5-3.8c-2.1-2.5-2.6-6.4-2.1-11.8l1.2-14.3h-3.9l0.4-4.2
			h10.3l-0.3,4.2l-1.1,12.8c-0.3,3.2-0.3,5.6-0.1,7c0.2,1.4,0.6,2.5,1.3,3.4c1.4,1.7,3.3,2.5,5.8,2.5c2.4,0,4.4-0.8,6.1-2.3
			c1.6-1.5,2.6-4.6,3-9.4l1.2-14.3c0,0,0.3-3.8,4.5-3.8h1L194.8,76.6z"/>
	</g>
</g>
</svg>
