<?xml version="1.0" encoding="UTF-8"?><svg id="_1" xmlns="http://www.w3.org/2000/svg" viewBox="0 0 80 80"><defs><style>.cls-1{fill:#494948;}.cls-1,.cls-2,.cls-3{stroke-width:0px;}.cls-2{fill:#777776;}.cls-3{fill:#333332;}</style></defs><path class="cls-3" d="m72.97,79.97c-1.79,0-3.58-.68-4.95-2.05l-8.33-8.33c-2.73-2.73-2.73-7.17,0-9.9,2.73-2.73,7.17-2.73,9.9,0l8.33,8.33c2.73,2.73,2.73,7.17,0,9.9-1.37,1.37-3.16,2.05-4.95,2.05Z"/><path class="cls-2" d="m60,64c-1.02,0-1.73-.07-2.21-.55l-10.02-10.02c-1.56-1.56-1.56-4.09,0-5.66,1.56-1.56,4.1-1.56,5.66,0l10.02,10.02c1.24,1.24.98,3.52-.58,5.08-.78.78-1.85,1.13-2.87,1.13Z"/><path class="cls-1" d="m30,10c11.03,0,20,8.97,20,20s-8.97,20-20,20-20-8.97-20-20S18.97,10,30,10m0-10C13.43,0,0,13.43,0,30s13.43,30,30,30,30-13.43,30-30S46.57,0,30,0h0Z"/></svg>