<?xml version="1.0" encoding="UTF-8"?><svg id="_2" xmlns="http://www.w3.org/2000/svg" viewBox="0 0 80 80"><defs><style>.cls-1{fill:#fff;stroke-width:0px;}</style></defs><path class="cls-1" d="m16.84,9.05c1.76-1.04,3.34-1.93,4.32-1.93,2.85,0,5.4.64,9.23,4.47s4.85,8.94,4.85,10.09c0,3.83-2.07,4.47-2.07,4.47l-5.08,3.7s-1.92,1.85-2.3,3.45c-.77,3.19-.26,4.6-.26,4.6,0,0,1.52,4.9,5.49,9.7,4.28,5.17,7.37,6.92,11.38,7.43s5.14-.33,5.78-.33,5.21-4.04,5.21-4.04c0,0,1.5-1.23,4.04-1.7s6.12.43,9.27,4.97,3.33,6.32,3.33,8.57c0,3.62-1.72,4.66-1.72,4.66,0,0-3.43,3.09-5.84,4.24-6.24,2.95-11.63,2.18-17.79,1.23-8.35-1.28-14.7-3.45-25.91-17.74-8.31-10.6-10.73-18.13-11.62-23.99-1.03-6.82.68-11.08,2.29-14.3,2.04-4.09,5.62-6.48,7.38-7.51Z"/></svg>