<?xml version="1.0" encoding="UTF-8"?><svg id="_1" xmlns="http://www.w3.org/2000/svg" viewBox="0 0 80 80"><defs><style>.cls-1{fill:#fff;stroke-width:0px;}</style></defs><path class="cls-1" d="m7,0v66h51V0H7Zm6,20h18v18H13v-18Zm5,41c-1.66,0-3-1.34-3-3s1.34-3,3-3,3,1.34,3,3-1.34,3-3,3Zm0-11c-1.66,0-3-1.34-3-3s1.34-3,3-3,3,1.34,3,3-1.34,3-3,3Zm34,11h-28v-6h28v6Zm0-11h-28v-6h28v6Zm0-12h-16v-6h16v6Zm0-12h-16v-6h16v6Zm0-12H13V6h39v8Z"/><polygon class="cls-1" points="64 14 64 72 22 72 22 80 73 80 73 14 64 14"/><rect class="cls-1" x="17" y="24" width="10" height="10"/></svg>